<?xml version="1.0" encoding="UTF-8"?>
<svg width="1920" height="720" version="1.1" viewBox="0 0 1920.0001 720" xmlns="http://www.w3.org/2000/svg" xmlns:cc="http://creativecommons.org/ns#" xmlns:dc="http://purl.org/dc/elements/1.1/" xmlns:rdf="http://www.w3.org/1999/02/22-rdf-syntax-ns#">
<metadata>
<rdf:RDF>
<cc:Work rdf:about="">
<dc:format>image/svg+xml</dc:format>
<dc:type rdf:resource="http://purl.org/dc/dcmitype/StillImage"/>
<dc:title/>
</cc:Work>
</rdf:RDF>
</metadata>
<g transform="translate(0 -332.36)">
<rect x="1192.5" y="-362.14" width="266.5" height="127" fill="#fff" fill-opacity=".39873"/>
<rect x="-1.0658e-13" y="332.36" width="1920" height="609.69" fill="#f8f9e7"/>
<path transform="translate(0 332.36)" d="m1920 235.65c-50.625 11.773-99.427 28.933-122.54 36.043-36.77 11.314-246.07 107.48-267.29 115.97s-159.81 56.568-210.72 62.225c-50.912 5.6568-306.88 18.385-357.79 18.385-50.912 0-309.71-39.598-340.83-39.598-31.113 0-258.8-53.74-281.43-57.982-22.627-4.2426-72.127-39.598-111.72-50.912-26.52-7.5772-148.96-31.42-227.69-46.492v446.71h1920v-484.35z" fill="#f5f2df" fill-rule="evenodd"/>
<path transform="translate(0 332.36)" d="m1920 265.95c-1.9717 0.05751-4.0599 0.27014-6.2852 0.74804-14.541 3.1229-18.766 15.471-18.766 15.471s-4.6335-6.237-14.023-4.6406c-9.3898 1.5964-10.467 8.8965-10.467 8.8965s-5.6157-8.9398-20.318-5.6856c-14.703 3.2543-13.377 15.906-13.377 15.906s-9.7005-4.1071-16.221 0.29883-5.1778 12.879-5.1778 12.879-4.7205-5.9204-13.604-5.8203c-1.269 0.0143-2.6233 0.15246-4.0605 0.44727-11.498 2.3585-11.393 11.641-11.393 11.641s-10.229-2.912-16.086 1.0293c-5.8572 3.9413-5.5274 11.828-5.5274 11.828s-12.96-2.678-18.926 4.0254c-5.9654 6.7034-8.6816 15.193-8.6816 15.193s-6.2158-4.2877-18.047 2.2285c-11.831 6.5162-11.422 11.299-11.422 11.299s-5.7878-3.29-18.34-1.1856c-12.552 2.1044-15.842 7.8906-15.842 7.8906s-4.676-2.353-13.354 0.79688c-8.6777 3.1499-10.484 10.186-10.484 10.186s-6.6375-1.1529-12.953 1.4512c-6.3155 2.604-7.6641 10.977-7.6641 10.977s-11.682-3.8181-16.848 4.1934c-5.1654 8.0114-2.1895 14.639-2.1895 14.639s-13.215-1.6241-21.834 2.209c-8.6191 3.8331-12.984 13.152-12.984 13.152s-18.828-2.8657-30.238 0.51758c-11.41 3.3833-15.541 15.436-15.541 15.436s-9.2623-3.6809-18.623-0.47265c-9.3608 3.2082-13.697 12.869-13.697 12.869s-5.6402-1.5836-9.5937 0.47461c-3.9534 2.0582-3.8281 7.5527-3.8281 7.5527s-6.2309 1.1794-8.459 5.9863c-0.2773-0.25699-0.5766-0.50882-0.9121-0.74414-5.7799-4.0539-10.463-2.1309-10.463-2.1309s-4.5955-8.7565-16.332-8.6094c-11.737 0.14717-13.385 9.2812-13.385 9.2812s-9.4947-4.7871-15.99-2.0215-7.6602 10.572-7.6602 10.572-12.223-5.075-19.346 0.38281c-7.1228 5.4577-11.391 13.283-11.391 13.283s-5.2967-5.3822-18.145-1.2148c-12.848 4.1674-13.348 8.9414-13.348 8.9414s-5.0635-4.3239-17.787-4.625c-12.724-0.30117-17.047 4.7617-17.047 4.7617s-4.1458-3.1929-13.262-1.7363c-9.116 1.4568-12.219 8.0254-12.219 8.0254s-6.3008-2.3855-12.994-1.0195c-6.6934 1.366-9.5977 9.334-9.5977 9.334s-10.75-5.9538-17.334 0.93945c-6.584 6.8932-4.914 13.963-4.914 13.963s-12.67-4.0877-21.857-1.9492c-9.1876 2.1383-15.234 10.467-15.234 10.467s-17.947-6.3654-29.791-5.1953c-11.844 1.1702-18.176 12.229-18.176 12.229s-8.3994-5.3633-18.197-3.9785c-9.798 1.3849-15.879 10.055-15.879 10.055s-5.241-2.6192-9.5117-1.3438c-4.2706 1.2755-5.1836 6.6953-5.1836 6.6953s-6.8929-0.0341-9.8164 4.8301c-2.9238 4.8642 0.5957 10.75 0.5957 10.75s-15.506-3.351-21.516 4.6367c-0.069 0.0918-0.1276 0.18653-0.1934 0.27929-0.9009 3e-3 -1.4902 0.10743-1.4902 0.10742 0 0-0.25-4.25-4.5-7.25-4.25-3-12.5 0.25-12.5 0.25s-10.25-8-15.25-8-10.5 3.5-10.5 3.5-8-4.25-16.5-3.75c-8.5 0.5-15 5.25-15 5.25s-6-5.5-14-5c-8 0.5-12.5 6-12.5 6s-3.75-4.25-10.5-4c-2.0562 0.0762-4.0868 0.57285-5.9199 1.2227-1.313-5.5481-4.3172-13.12-11.201-16.66-11.54-5.9353-17.613-5.2695-17.613-5.2695s-4.4228-8.2974-13.982-10.586c-9.5595-2.2884-16.297 3.5449-16.297 3.5449s5.679-7.4724 0.44336-13.572c-5.2357-6.0998-10.943-5.2988-10.943-5.2988s-2.6074-10.954-15.598-14.096c-12.99-3.1417-17.381 6.4727-17.381 6.4727s-9.1272-7.9571-17.072-6.7344c-7.9451 1.2226-11.428 9.5078-11.428 9.5078 0 0-12.056-9.0398-21.451-5.0234-9.395 4.0162-16.307 11.449-16.307 11.449s-4.3275-7.4282-19.676-6.4473c-15.348 0.98093-17.246 6.1055-17.246 6.1055s-4.3671-6.1952-18.32-10.109c-13.953-3.9143-20.148 0.45313-20.148 0.45313s-3.6768-4.6891-14.145-5.6484c-10.468-0.95903-15.738 5.4141-15.738 5.4141s-6.2795-4.4039-14.049-4.7812c-7.7693-0.37722-13.219 7.5957-13.219 7.5957s-10.184-9.5955-19.389-3.8438c-9.2047 5.7517-9.3516 14.023-9.3516 14.023s-12.83-8.0776-23.568-8.3047c-10.739-0.22731-19.754 7.2598-19.754 7.2598s-18.01-12.076-31.406-14.119c-13.397-2.0432-23.494 8.373-23.494 8.373s-7.7477-8.2674-18.934-9.5078c-7.544-4.5202-18.951-3.4199-18.951-3.4199s4.7566-6.191 2.0918-12.078c-2.6645-5.8871-10.463-6.7598-10.463-6.7598s-0.31875-6.2497-4.9805-8.2558c-4.6618-2.0061-10.934 0.26367-10.934 0.26367s-5.7342-10.608-16.633-13.467c-10.898-2.8591-21.107 2.0977-21.107 2.0977s-5.7008-13.34-18.941-16.227c-13.241-2.8863-34.379 1.9453-34.379 1.9453s-5.7389-10.219-15.848-13.85c-10.109-3.631-24.979-0.67969-24.979-0.67969s2.8238-7.7746-3.7129-16.439c-6.5366-8.6649-19.482-3.3496-19.482-3.3496s-2.2333-9.3961-9.623-11.824c-7.3898-2.4282-14.83-0.5625-14.83-0.5625s-2.6421-7.8388-12.76-10.689c-10.118-2.8503-15.229 0.21485-15.229 0.21485s-4.2204-6.2963-18.65-7.6348c-14.43-1.3386-20.727 2.8828-20.727 2.8828s0.0647-5.4644-13.916-11.873c-13.981-6.4087-20.682-1.0215-20.682-1.0215s-3.7954-9.413-11.131-16.525c-7.3356-7.1126-21.828-2.9863-21.828-2.9863 1e-5 0-0.28625-8.9837-7.2676-12.969-6.9813-3.985-18.352 0.17773-18.352 0.17773s-0.65772-10.548-13.912-12.264c-13.254-1.7152-19.609 7.582-19.609 7.582s-3.0804-7.9769-13.115-10.221c-10.035-2.2438-16.193 4.332-16.193 4.332s-1.5155-9.5209-10.949-13.141c-9.4337-3.6197-16.844-0.61914-16.844-0.61914 0 0-5.1838-8.2969-16.334-10.635-11.52-2.4153-20.431-0.45509-22.064-0.05469v314.44l428.5 3.6152c-0.5765 6.0795 0.17205 14.034 6.1094 20.236 11.108 11.603 32.52 17.859 32.52 17.859l160.99 60.146h331.16l19.82-79.963 104.74 4.2422c4.8787 4.5308 10.389 5.123 10.389 5.123s-2.0953 16.673 9.8769 24.135c11.972 7.4617 31.553 8.1367 31.553 8.1367l354.41 38.326h78.092l-0.9492-138.72 352.79-29.014v-286.32zm-443.02 212.82c0.051 0.0668 0.063 0.0828 0.1054 0.13672-0.175 0.21788-0.2851 0.36523-0.2851 0.36523s0.079-0.20567 0.1797-0.50195z" fill="#f4d2d2" fill-rule="evenodd"/>
<path transform="translate(0 332.36)" d="m1905.6 427.49c-1.6529-0.0412-3.3193 0.0246-4.9727 0.22852-13.227 1.631-19.199 11.086-19.199 11.086s-10.492-9.3018-26.232-7.7656c-15.741 1.5363-25.703 14.133-25.703 14.133s-14.152-7.2126-30.867-5.5195c-16.715 1.6931-30.965 12.482-30.965 12.482s-11.813-5.0923-21.553-3.5234c-9.7399 1.5688-27.197 20.369-27.197 20.369s-17.09-3.7419-24.428 3.4355c-7.3375 7.1775-6.4903 15.533-6.4903 15.533s-11.593-0.63047-19.607 11.652c-2.4782 3.7983-2.9635 8.0889-2.4551 12.203-8.9697-2.9885-15.49 0.83789-15.49 0.83789s-2.7171-6.844-11.324-9.4648c-8.6075-2.6207-20.393 7.1934-20.393 7.1934s-21.174-7.5763-29.385-4.8633c-8.2113 2.7129-15.346 11.445-15.346 11.445s-15.443-2.6401-29.131 2.793c-13.688 5.4331-21.785 16.762-21.785 16.762s-12.838-5.7771-25.705-0.61524c-12.867 5.1618-17.271 16.635-17.271 16.635s-8.4645-4.9441-19.414-0.87109c-10.95 4.0731-19.047 15.4-19.047 15.4l0.9785 3.4277c-7.4722 2.857-12.238 7.1172-12.238 7.1172s-12.72-9.5163-29.479-10.691c-16.759-1.175-32.637 7.0332-32.637 7.0332s-10.774-7.0278-20.639-7.1387c-9.8648-0.111-30.264 15.445-30.264 15.445s-16.206-6.5941-24.658-0.76953c-8.4516 5.8246-9.0391 14.203-9.0391 14.203s-10.755-2.4597-20.549 7.3691c-0.4131-0.0528-0.8329-0.0941-1.2656-0.11133-11.074-0.4394-18.754 8.0176-18.754 8.0176s2.9221-18.725-8.2735-25.045-19.961-1.1465-19.961-1.1465-2.7171-6.844-11.324-9.4648c-8.6075-2.6207-20.393 7.1934-20.393 7.1934s-21.174-7.5763-29.385-4.8633c-8.2113 2.7129-15.344 11.445-15.344 11.445s-0.94-0.1568-2.5118-0.31445c-1.2868-0.52617-2.6813-0.98641-4.1992-1.3535-7.7806-1.8817-12.942 0.11038-16.15 2.5312-2.0917 0.48957-4.2005 1.1077-6.2715 1.9297-0.517 0.20527-1.0106 0.43313-1.5117 0.6543-3.9227-2.6725-10.629-6.3724-16.793-5.4238-9.3917 1.4453-13.508 11.24-13.508 11.24s-14.252-10.685-25.358-5.9375c-11.106 4.7474-19.275 13.533-19.275 13.533s-5.1168-8.7826-23.26-7.623c-18.143 1.1595-20.385 7.2188-20.385 7.2188s-5.1625-7.3223-21.656-11.949c-16.494-4.627-23.818 0.53516-23.818 0.53516s-4.3432-5.5437-16.717-6.6777c-12.374-1.1336-18.607 6.4004-18.607 6.4004s-7.4216-5.2063-16.605-5.6523c-9.184-0.4459-15.625 8.9805-15.625 8.9805s-12.039-11.344-22.92-4.5449c-10.881 6.799-11.055 16.576-11.055 16.576s-15.165-9.548-27.859-9.8164c-12.694-0.2687-23.35 8.582-23.35 8.582s-1.8635-1.2267-4.7148-2.9473c-0.39865-3.3167-1.5916-6.5614-4.1523-9.1602-9.0444-9.1785-18.918-6.6113-18.918-6.6113s-0.72789-7.3458-8.2988-12.246c-7.571-4.9003-21.637 1.3047-21.637 1.3047s-18.312-13.142-26.973-12.793c-8.661 0.34858-17.943 6.793-17.943 6.793s-14.155-6.8024-28.844-5.3438c-14.689 1.4586-25.617 10.139-25.617 10.139s-10.777-9.1094-24.6-7.6856c-13.823 1.4238-21.232 11.266-21.232 11.266s-6.792-7.1009-18.467-6.1973c-10.291 0.79654-19.979 7.6204-22.137 9.2305-0.7238-1.3513-6.272-11.036-18.67-14.689-13.329-3.9278-25.59 3.0566-25.59 3.0566s-9.1558-10.532-23.33-14.652c-14.174-4.1204-29.334-0.01953-29.334-0.01953s-7.9473-8.0362-16.398-9.9629c-8.4511-1.9267-28.857 7.6465-28.857 7.6465 1e-5 0-12.692-8.6732-21.031-5.2402-1.6179 0.66602-2.9939 1.4713-4.1699 2.334-11.224-3.6458-21.355-2.0664-21.355-2.0664s-7.1923-6.8819-19.238-10.277c-12.046-3.3955-17.828 2.6953-17.828 2.6953-1.9867-4.5126-3.3227-9.0759-18.834-16.9-15.511-7.8244-24.262-1.6934-24.262-1.6934s-8.9373-3.0357-15.709 2.2344c-1.9-6.2745-17.693-11.727-17.693-11.727s0.23015-13.676-10.146-18.158c-10.377-4.4822-20.789 0.74609-20.789 0.74609s9.6509-16.745 1.3164-26.867c-8.3345-10.122-18.572-8.416-18.572-8.416 0 0-0.074-7.5097-7.3027-13.162-7.229-5.6525-22.045-0.63867-22.045-0.63867s-17.369-14.981-26.178-15.412c-8.8093-0.43173-18.801 5.2598-18.801 5.2598s-13.729-8.1783-28.748-8.0312c-15.019 0.14705-26.881 7.9551-26.881 7.9551s-10.096-10.208-24.234-10.018c-14.138 0.19023-22.541 9.4922-22.541 9.4922s-6.2403-7.8128-18.154-7.9551c-0.69052-0.00824-1.3805 0.0165-2.0684 0.0586v140.9l302.1 36.727c-0.45732 5.8571 5.3984 14.334 5.3984 14.334s-21.588-6.6994-38.342-3.4062c-16.753 3.2928-20.451 17.563-23.527 21.307l-18.436 18.469 335.77 62.369h1.1738l1.5586-8.4023 29.953 0.00976c3.1743 4.5662 7.0468 7.1453 9.3438 8.3926h928.54l-1.3204-44.641 276.62-69.777 111.16-22.555v-152.9c-4.0134-1.2887-9.1247-2.5092-14.402-2.6406v-0.00195z" fill="#ecb0b0" fill-rule="evenodd"/>
<path transform="translate(0 332.36)" d="m1333 609.69c-1.7861-0.01631-3.7567 0.27828-5.9219 1-13.857 4.6189-14.188 13.857-14.188 13.857s-14.186-8.2486-27.053-0.99024c-12.867 7.2584-11.549 16.826-11.549 16.826s-10.228 1.6511-13.527 7.5898c-3.2992 5.9386-0.6582 12.537-0.6582 12.537s-9.2396-0.99082-16.168 6.2676c-6.9285 7.2584-0.33 18.477-0.33 18.477s-14.845 2.6402-18.145 14.518c-2.7274 9.8186 2.1611 17.743 3.9551 20.227h206.57c2.0657-4.5432 3.2415-10.321 0.959-16.598-5.2789-14.517-21.445-16.826-21.445-16.826s9.8983-22.765-7.5878-35.303c-17.486-12.537-32.004-5.6094-32.004-5.6094s3.3802-6.3822-2.5585-12.518-11.975-4.2109-11.975-4.2109 0.6772-4.8815-4.9316-8.3457c-5.6088-3.4643-9.5684-1.6504-9.5684-1.6504s-4.2283-9.16-13.873-9.248z" fill="#909f65" fill-rule="evenodd"/>
<path transform="translate(0 332.36)" d="m58.029 469.69c-1.7861-0.01631-3.7567 0.27828-5.9219 1-13.857 4.6189-14.188 13.857-14.188 13.857s-14.186-8.2486-27.053-0.99024c-6.9613 3.9269-9.7553 8.5199-10.867 11.918v166.79l132.28-3.1816s29.034-5.2784 34.973-29.033-13.197-40.25-13.197-40.25 13.197-11.878 7.918-26.395c-5.2789-14.517-21.445-16.826-21.445-16.826s9.8982-22.765-7.5879-35.303c-17.486-12.537-32.004-5.6094-32.004-5.6094s3.3801-6.3822-2.5586-12.518c-5.9387-6.1354-11.975-4.2109-11.975-4.2109s0.67716-4.8815-4.9316-8.3457c-5.6088-3.4643-9.5684-1.6504-9.5684-1.6504s-4.2283-9.16-13.873-9.248z" fill="#909f65" fill-rule="evenodd"/>
<path transform="translate(0 332.36)" d="m451.33 550.13c-14.014 0.19945-23.109 12.553-23.109 12.553s-4.2337-8.8721-19.709-7.5098c-15.475 1.3622-15.82 16.43-15.82 16.43s-4.6299-0.09309-8.6348 5.6621c-4.005 5.7552-1.2793 10.23-1.2793 10.23s-6.7011 0.67879-9.8965 9.1797c-3.1954 8.5009 2.8027 13.297 2.8027 13.297s-17.096-0.61157-28.846 19.025c-11.75 19.637 7.5469 37.656 7.5469 37.656s-14.795 9.0996-13.797 25.498c0.9979 16.399 18.904 22.396 18.904 22.396s-0.98161 2.0719-1.9883 5.4551h182.97l58.891-23.898s17.498-12.567 10.736-29.906c-6.7619-17.339-26.1-14.301-26.1-14.301s1.9523-15.767-8.1855-25.902c-10.138-10.136-26.006-4.3945-26.006-4.3945s3.8115-12.366-4.4375-22.557c-8.2491-10.19-23.852-6.4766-23.852-6.4766s1.687-13.74-8.1465-17.887c-9.8334-4.1472-18.426 0.73047-18.426 0.73047s-0.22138-7.5547-5.9551-11.951c-5.7339-4.3966-16.41-1.6738-16.41-1.6738s-2.7654-9.8934-18.393-11.525c-0.97672-0.102-1.931-0.14415-2.8652-0.13086z" fill="#f07814" fill-rule="evenodd"/>
<path transform="translate(0 332.36)" d="m1918 528.53c-0.994 0.0103-1.99 0.0561-2.9824 0.14453-15.878 1.4144-23.398 12.477-23.398 12.477s-12.166-11.543-31.045-10.344c-18.88 1.1994-31.299 15.854-31.299 15.854s-16.628-9.1953-36.678-7.8477c-20.05 1.3476-37.521 13.668-37.521 13.668s-11.528-8.598-32.162-3.0508c-20.634 5.5472-26.795 21.217-26.795 21.217s-12.59-4.1943-24.039 2.498-13.691 18.928-13.691 18.928-9.4447 0.55185-18.963 8.8066c-9.5181 8.2548-7.3457 24.607-7.3457 24.607s-4.2516-1.7966-6.6504-2.4668c-18.22-5.0904-34.774 4.6524-34.774 4.6524s-12.667-14.162-32.041-19.498c-19.374-5.3364-39.93 0.53711-39.93 0.53711s-8.9409-13.17-28.172-15.1c-19.231-1.9298-33.48 12.816-33.48 12.816s-9.6634-8.5544-22.982-6.4609c-13.319 2.0935-19.701 14.254-19.701 14.254s-13.011-3.5037-24.518 6.5547c-11.507 10.058-9.8906 33.166-9.8906 33.166s-11.673-10.331-26.629-8.0898c-14.957 2.2415-19.346 20.008-19.346 20.008s-7.9316 1.065-13.246 8.9707c-5.3145 7.9057-1.1524 20.9-1.1524 20.9s-16.37-15.994-34.102-12.248c-17.732 3.746-23.721 13.414-31.67 23.248-4.9137-1.5506-10.348-2.6576-16.205-2.8555-20.824-0.7038-37.024 7.0723-37.024 7.0723s1.966-11.532-2.5937-18.301c-4.5596-6.7688-11.598-8.4316-11.598-8.4316s-2.0434-13.144-18.777-15.271c-13.448-1.7093-22.25 11.285-22.25 11.285s-3.4051-17.47-15.1-24.908-21.453-4.8047-21.453-4.8047-3.6206-8.8477-17.871-10.387-21.022 10.146-21.022 10.146-14.341-10.648-32.102-6.416c-17.76 4.2323-21.969 18.021-21.969 18.021s-19.059-1.9863-35.332 5.7383c-16.273 7.7246-25.252 22.197-25.252 22.197s-16.13-6.0253-31.422 1.3027c-10.192 4.8838-15.554 12.871-18.01 17.668-4.787-3.0827-10.549-5.9946-16.693-7.3476-16.096-3.5443-26.951 5.0215-26.951 5.0215s-8.4051-15.166-27.393-19.855c-18.987-4.6897-35.791 5.8965-35.791 5.8965s-13.533-14.237-33.721-19.145c-20.188-4.9078-41.246 1.8047-41.246 1.8047s-10.618-9.7411-30.135-11.215-33.646 10.787-33.646 10.787-12.378-9.1904-25.568-5.5215c-13.191 3.669-18.297 14.912-18.297 14.912s-14.199-2.7738-24.566 4.0117c-10.367 6.7856-11.651 18.604-11.783 21.072-16.984-2.2481-33.025-0.38281-33.025-0.38282 0 0 13.773-7.3215 11.848-20.512-1.9253-13.19-14.941-12.729-14.941-12.729s-3.82-13.608-16.965-19.604c-13.145-5.996-25.957 0.25976-25.957 0.25976s7.6772-19.194-2.0527-32.287c-10.372-13.957-24.91-12.281-24.91-12.281s-1.0702-11.148-15.176-16.523c-14.106-5.3752-25.219 1.7598-25.219 1.7598s-8.448-11.638-28.002-14.084c-19.554-2.4464-32.611 5.9883-32.611 5.9883s-19.1-9.1813-38.922-7.2129c-19.821 1.9684-34.568 13.682-34.568 13.682 0 0-9.2288-9.8258-25.682-10.635-16.453-0.80896-24.439 5.7383-24.439 5.7383s-8.0938-10.412-21.99-12.77-26.029 3.6641-26.029 3.6641-7.4038-14.885-25.391-20.186c-17.987-5.3003-34.531 4.125-34.531 4.125-1e-5 0-12.357-14.215-31.484-19.775-19.127-5.5603-39.584-0.02539-39.584-0.02539s-7.9747-11.093-29.754-12.318c-21.779-1.2249-31.316 9.1914-31.316 9.1914s-3.9489-2.6819-9.2832-4.9707v182.68h1920v-191.42c-0.6793-0.0258-1.3591-0.05202-2.041-0.04492z" fill="#f38b51" fill-rule="evenodd"/>
<path transform="translate(0 332.36)" d="m607.95 609.69c-9.6448 0.08808-13.873 9.248-13.873 9.248s-3.9576-1.8138-9.5664 1.6504c-5.6088 3.4642-4.9336 8.3457-4.9336 8.3457s-6.034-1.9245-11.973 4.2109c-5.9387 6.1354-2.5606 12.518-2.5606 12.518s-14.516-6.9279-32.002 5.6094c-17.486 12.537-7.5898 35.303-7.5898 35.303s-16.165 2.3094-21.443 16.826c-2.2826 6.2771-1.1067 12.054 0.95898 16.598h206.57c1.7946-2.4848 6.682-10.409 3.9551-20.227-3.2993-11.877-18.146-14.518-18.146-14.518s6.5984-11.218-0.33007-18.477c-6.9285-7.2584-16.166-6.2676-16.166-6.2676s2.6391-6.5984-0.66016-12.537c-3.2993-5.9387-13.527-7.5898-13.527-7.5898s1.3203-9.5678-11.547-16.826c-12.867-7.2584-27.055 0.99024-27.055 0.99024s-0.3286-9.2384-14.186-13.857c-2.1652-0.72172-4.1378-1.0163-5.9238-1z" fill="#f34d4d" fill-rule="evenodd"/>
<path transform="translate(0 332.36)" d="m1390.3 676.92c-11.306 0.0455-16.127 12.113-16.127 12.113s-16.17-8.9712-30.984 1.1152c-12.478 8.4959-11.808 24.883-11.287 29.855h145.61c-2.9779-2.2909-6.4238-2.5781-6.4238-2.5781s0.2451-3.18-3.5527-6.1563c-3.7978-2.9763-6.9786-1.2773-6.9786-1.2773s-0.2059-4.6308-5.9218-7.1582-9.2442 1.4082-9.2442 1.4082 1.088-11.725-11.945-20.564-26.166 3.7168-26.166 3.7168-5.6747-10.52-16.98-10.475z" fill="#f34d4d" fill-rule="evenodd"/>
<path transform="translate(0 332.36)" d="m1620.9 598.13c-0.9342-0.01329-1.8904 0.02886-2.8672 0.13086-15.627 1.632-18.391 11.525-18.391 11.525s-10.678-2.7227-16.412 1.6738c-5.7337 4.3966-5.9531 11.951-5.9531 11.951s-8.5924-4.8776-18.426-0.73047c-9.8335 4.1471-8.1465 17.887-8.1465 17.887s-15.602-3.7139-23.852 6.4766c-8.249 10.19-4.4375 22.557-4.4375 22.557s-15.87-5.7411-26.008 4.3945c-10.138 10.135-8.1835 25.902-8.1835 25.902s-19.338-3.0385-26.1 14.301c-0.7814 2.0037-1.2278 3.9404-1.4257 5.8047h263.32c-3.1947-3.5029-6.1758-5.3496-6.1758-5.3496s19.297-18.019 7.5469-37.656c-11.75-19.637-28.846-19.025-28.846-19.025s5.9982-4.796 2.8028-13.297c-3.1954-8.5009-9.8965-9.1797-9.8965-9.1797s2.7257-4.4754-1.2793-10.23c-4.0049-5.7552-8.6348-5.6621-8.6348-5.6621s-0.3452-15.067-15.82-16.43c-15.475-1.3624-19.709 7.5098-19.709 7.5098s-9.0959-12.353-23.109-12.553z" fill="#f07a14" fill-rule="evenodd"/>
<path transform="translate(0 332.36)" d="m1834.3 567.92c-2.1558-0.01969-4.537 0.3359-7.1504 1.207-16.726 5.5751-17.123 16.727-17.123 16.727s-17.123-9.9563-32.654-1.1953c-15.531 8.761-13.94 20.311-13.94 20.311s-12.344 1.9901-16.326 9.1582c-3.9821 7.168-0.7969 15.133-0.7969 15.133s-11.151-1.1946-19.514 7.5664c-8.3628 8.761-0.3984 22.301-0.3984 22.301s-17.92 3.1853-21.902 17.521c-3.9823 14.336 5.5762 25.486 5.5762 25.486s-19.114 1.1954-25.088 16.328c-0.2026 0.5133-0.3859 1.0274-0.5547 1.541h235.55v-104.94c-18.925-10.853-33.889-3.7285-33.889-3.7285s4.0802-7.7039-3.0879-15.109-14.453-5.084-14.453-5.084 0.8168-5.8909-5.9531-10.072c-6.7699-4.1815-11.549-1.9902-11.549-1.9902s-5.1028-11.058-16.744-11.164z" fill="#86945d" fill-rule="evenodd"/>
<path transform="translate(0 332.36)" d="m175.07 545.13c-1.0927-0.01555-2.2111 0.03304-3.3535 0.15235-18.278 1.9089-21.512 13.48-21.512 13.48s-12.489-3.1835-19.195 1.959c-6.7064 5.1424-6.9629 13.98-6.9629 13.98s-10.053-5.7062-21.555-0.85547c-11.502 4.8507-9.5273 20.92-9.5273 20.92s-18.25-4.3432-27.898 7.5762c-9.6485 11.919-5.1895 26.383-5.1895 26.383s-18.562-6.7145-30.42 5.1406c-11.858 11.855-9.5723 30.297-9.5723 30.297s-10.643-1.671-19.881 3.8262v46.324c1.1552 1.0113 1.9102 1.5566 1.9102 1.5566l10.184 4.1328h290.38c1.1447-2.5862 1.9262-5.4915 2.125-8.7578 1.1672-19.18-16.137-29.824-16.137-29.824s22.572-21.074 8.8281-44.043c-13.743-22.968-33.74-22.254-33.74-22.254s7.0168-5.6077 3.2793-15.551c-3.7375-9.9431-11.576-10.738-11.576-10.738s3.1884-5.2352-1.4961-11.967c-4.6843-6.7316-10.1-6.6211-10.1-6.6211s-0.40341-17.625-18.504-19.219c-18.101-1.5934-23.053 8.7852-23.053 8.7852s-10.638-14.45-27.029-14.684z" fill="#f07814" fill-rule="evenodd"/>
<path transform="translate(0 332.36)" d="m397.1 627.15c-1.0927-0.01555-2.2111 0.03109-3.3535 0.15039-18.278 1.9089-21.512 13.482-21.512 13.482s-12.489-3.1855-19.195 1.957c-6.7064 5.1424-6.9629 13.98-6.9629 13.98s-10.051-5.7062-21.553-0.85547c-11.502 4.8507-9.5293 20.92-9.5293 20.92s-18.25-4.3413-27.898 7.5781c-9.6485 11.919-5.1894 26.383-5.1894 26.383s-18.56-6.7164-30.418 5.1387c-1.3018 1.3015-2.4256 2.6861-3.4082 4.1133h271.57c-0.11478-0.20076-0.21173-0.4005-0.33203-0.60156-13.743-22.968-33.74-22.252-33.74-22.252s7.0168-5.6096 3.2793-15.553c-3.7375-9.9431-11.576-10.738-11.576-10.738s3.1884-5.2333-1.4961-11.965c-4.6843-6.7316-10.1-6.623-10.1-6.623s-0.40341-17.624-18.504-19.217c-18.101-1.5934-23.053 8.7832-23.053 8.7832s-10.638-14.448-27.029-14.682z" fill="#f07814" fill-rule="evenodd"/>
<rect x="-2.1316e-14" y="332.36" width="1920" height="720" fill="#fff" fill-opacity=".60784"/>
</g>
</svg>
