<?xml version="1.0" encoding="UTF-8"?>
<svg version="1.1" viewBox="0 0 100 100" xmlns="http://www.w3.org/2000/svg" xmlns:cc="http://creativecommons.org/ns#" xmlns:dc="http://purl.org/dc/elements/1.1/" xmlns:rdf="http://www.w3.org/1999/02/22-rdf-syntax-ns#">
<metadata>
<rdf:RDF>
<cc:Work rdf:about="">
<dc:format>image/svg+xml</dc:format>
<dc:type rdf:resource="http://purl.org/dc/dcmitype/StillImage"/>
<dc:title/>
</cc:Work>
</rdf:RDF>
</metadata>
<g transform="translate(0 -952.36)">
<g transform="translate(3.4594 -2.6013)">
<g transform="matrix(.9688 0 0 .9688 -679.49 1502.2)">
<path d="m724.47-502.07c0.29321-0.26853 0.73978-0.29372 1.0626-0.0617 3.9112 2.8121 6.1149 11.513 4.0157 15.847-0.17325 0.35781-0.57801 0.54819-0.96375 0.45172-7.3509-1.8394-9.7032-11.118-4.1146-16.237z" fill="#9cdd05"/>
<path d="m726.85-500.9c-0.42259-0.49712-0.86299-0.91404-1.3106-1.2359-0.32284-0.23203-0.76942-0.20684-1.0626 0.0617-5.5878 5.1179-3.2374 14.397 4.1144 16.237 0.38574 0.0965 0.79033-0.0939 0.96375-0.45172 0.0697-0.14411 0.13383-0.2968 0.19501-0.45377-5.1044-2.8206-6.4986-9.5336-2.9-14.157z" fill="#94c609"/>
<path d="m763.4-520.76c0.40613-0.58949 0.25721-1.3964-0.33227-1.8026-0.58949-0.40595-1.3966-0.25721-1.8026 0.33228-3.3404 4.8502-7.4529 10.295-12.363 15.912l-0.43561-5.2908c-0.0588-0.71338-0.68545-1.2443-1.398-1.1853-0.71339 0.0588-1.2441 0.68459-1.1853 1.398l0.63764 7.7449c-11.472 12.578-24.945 23.527-40.282 31.569-0.63387 0.33244-0.87857 1.1159-0.54613 1.7498 0.23168 0.44195 0.68254 0.69471 1.149 0.69471 0.20272 0 0.4087-0.0478 0.60062-0.14857 10.94-5.7355 21.383-13.188 31.104-22.188 1.0095-0.34804 5.5093-1.7522 11.768-1.5112 0.71219 0.0286 1.3176-0.52951 1.3452-1.2451 0.0276-0.71527-0.52985-1.3176-1.2453-1.345-3.2007-0.12355-5.9675 0.15251-8.1198 0.52026 7.7509-7.6438 14.852-16.122 21.106-25.204z" fill="#83aa2e"/>
<path d="m762.02-486.25c5.1503 0.31307 9.7999-2.2985 12.337-6.3992 0.29783-0.48153 0.21472-1.113-0.1957-1.503-2.2346-2.1239-6.4741-3.7143-11.417-4.0147-4.943-0.3004-9.3439 0.76496-11.819 2.6025-0.45463 0.33741-0.61365 0.95414-0.37632 1.4682 2.0221 4.3778 6.3211 7.5331 11.471 7.8462z" fill="#9cdd05"/>
<path d="m754.01-494.09c-0.23734-0.51391-0.0783-1.1306 0.37631-1.4682 1.8965-1.4079 4.9239-2.3616 8.4586-2.596-0.0321-2e-3 -0.0638-5e-3 -0.0958-7e-3 -4.943-0.3004-9.3439 0.76496-11.819 2.6027-0.45463 0.33741-0.61365 0.95414-0.37632 1.4682 2.0219 4.3778 6.3209 7.5331 11.471 7.8462 0.86761 0.0528 1.7205 0.0206 2.5519-0.0859-4.7461-0.60542-8.6644-3.6414-10.567-7.7603z" fill="#94c609"/>
<path d="m769.07-517.39c-1.5395-0.41316-2.9952-1.2232-4.2011-2.4342-0.87138-0.87498-1.498-1.8817-1.9095-2.9546-1.1387 0.15457-2.3226 0.0884-3.5087-0.25551-1.6413-0.47604-3.0511-1.3639-4.1528-2.5156-2.0934 0.17308-3.8747 0.78707-4.9454 1.6523-0.24265 0.19621-0.31514 0.53962-0.1712 0.81774 1.2264 2.3684 3.6805 4.0116 6.5342 4.069 1.9789 0.0398 3.7887-0.69145 5.1462-1.9155-0.42173 1.7786-0.19364 3.7172 0.79186 5.4337 1.4211 2.4753 4.0412 3.8387 6.7075 3.7767 0.31291-7e-3 0.57955-0.2358 0.6349-0.54288 0.24471-1.3548-0.0725-3.212-0.92604-5.1311z" fill="#9cdd05"/>
<path d="m755.26-520.63c-0.14395-0.27795-0.0715-0.62153 0.17119-0.81774 0.92775-0.74972 2.3893-1.3102 4.1247-1.5592-0.0375-0.0103-0.0749-0.0185-0.11225-0.0293-1.6413-0.47604-3.0511-1.3639-4.1528-2.5156-2.0934 0.17308-3.8747 0.78707-4.9454 1.6523-0.24265 0.19621-0.31514 0.53962-0.1712 0.81774 1.178 2.2747 3.4895 3.8764 6.1989 4.0507-0.43663-0.48101-0.81226-1.0177-1.1132-1.5988z" fill="#94c609"/>
<path d="m792.63-540.03c-0.45686-0.78501-4.6823-7.6844-12.262-8.2607-0.73137-0.0382-1.4703-0.0281-2.1962 0.0302l-0.19672 0.0158 0.0807 0.1801c1.2004 2.6815 1.5426 5.3888 1.2177 8.278l0.15029 7e-3c2.019 0.0922 4.0577 0.602 6.0597 1.515l0.0629 0.0288 0.0608-0.0322c1.8577-0.98156 3.8462-1.1624 6.0794-0.55264 0.72349 0.19775 1.3181-0.56636 0.9437-1.2091z" fill="#ff0c5d"/>
<path d="m783.08-547.8c-0.84995-0.24967-1.7536-0.42395-2.7115-0.49678-0.73137-0.0382-1.4703-0.0281-2.1962 0.0302l-0.19673 0.0158 0.0807 0.1801c1.2004 2.6815 1.5426 5.3888 1.2177 8.278l0.15028 7e-3c1.5995 0.073 3.2113 0.41247 4.8076 1.0026 0.31565-3.1371-0.0709-6.1637-1.1519-9.0168z" fill="#d70047"/>
<path d="m777.28-550.12c-4.1453-6.3694-12.226-6.7611-13.134-6.7848-0.74372-0.0195-1.1279 0.86898-0.60714 1.4086 1.6074 1.6658 2.404 3.4968 2.4354 5.5976l8.5e-4 0.0689 0.0555 0.0415c2.3369 1.7469 4.0637 3.8656 5.1313 6.2943 0.71938 1.7481 1.0916 3.3361 1.2929 5.0399l0.17068-0.0689c1.5358-0.61982 3.1745-1.0296 4.8676-1.2175 0.63198-0.0552 1.282-0.068 1.9319-0.0382l0.13058 6e-3c0.42069-3.7434-0.30023-7.1492-2.2759-10.347z" fill="#ff0c5d"/>
<path d="m775.89-539.49c0.32781-4.1324-0.61468-8.0254-2.8126-11.583-1.6446-2.5269-3.8054-4.2666-6.0006-5.469-1.5042-0.30417-2.6215-0.35489-2.9267-0.36295-0.74372-0.0195-1.1279 0.86898-0.60714 1.4086 1.6074 1.6658 2.404 3.4968 2.4354 5.5976l8.5e-4 0.0689 0.0555 0.0415c2.3369 1.7469 4.0637 3.8656 5.1313 6.2943 0.70499 1.7131 1.0882 3.3085 1.288 4.9981 0.0581-9e-3 0.11584-0.018 0.17411-0.0264l2e-3 -5.1e-4c1.0441-0.42138 2.1364-0.7432 3.2604-0.96666z" fill="#d70047"/>
<path d="m764.46-532.01c2.2308-3.0376 4.9798-5.2307 8.1709-6.5185l0.0987-0.0398c-0.19895-1.6891-0.59805-3.3236-1.3042-5.0394-3.5462-8.0684-12.735-10.038-13.771-10.236-0.83162-0.15885-1.424 0.76617-0.94061 1.4645 3.69 5.3378 1.3529 10.176-2.5076 15.424l0.0122 5e-3c-2.9051 4.5406-1.3474 10.494 3.1724 13.172 0.67379 0.39927 1.4084 0.72092 2.1945 0.94883 1.1579 0.3357 2.3566 0.4231 3.5621 0.25944l0.17428-0.0236-0.0629-0.16434c-1.1074-2.8878-0.63559-6.5193 1.2014-9.2524z" fill="#ff0c5d"/>
<path d="m759.34-534.57-0.0122-5e-3c3.912-5.3794 6.6141-10.584 2.9408-16.155-0.22037-0.33381-0.21712-0.75725 9e-3 -1.1051 0.0905-0.13949 0.20769-0.24882 0.33981-0.32696-2.4519-1.1531-4.5029-1.5878-4.9608-1.6752-0.83162-0.15885-1.424 0.76616-0.94061 1.4645 3.69 5.3378 1.3529 10.176-2.5076 15.424l0.0122 5e-3c-2.9051 4.5406-1.3474 10.494 3.1724 13.172 0.67379 0.39928 1.4084 0.72093 2.1945 0.94884 0.15919 0.0461 0.31925 0.0865 0.47998 0.12338-2.8169-3.1963-3.1671-8.0405-0.72709-11.87z" fill="#d70047"/>
<path d="m793.06-532.86c-0.67123-0.81346-6.8117-7.9272-15.596-7.1616-3.7124 0.41213-9.0228 2.1091-13.242 7.858-2.2949 3.4139-2.8266 8.9575 0.70807 12.507 0.57766 0.58006 1.2124 1.0698 1.8864 1.4691 4.5111 2.6727 10.485 1.1929 13.077-3.5443l0.0132 0.0106c2.623-5.8947 5.991-10.27 12.321-9.6104 0.84584 0.0884 1.3711-0.87618 0.83282-1.5286z" fill="#ff0c5d"/>
<path d="m769.1-529.27c4.7817-6.5147 12.905-9.8964 20.76-6.6391-2.7541-2.1614-7.0912-4.5709-12.394-4.1088-3.7124 0.41213-9.0228 2.1091-13.242 7.858-2.2949 3.4139-2.8266 8.9575 0.70807 12.507 0.57767 0.58006 1.2124 1.0698 1.8864 1.4691 0.83711 0.49592 1.735 0.85064 2.6587 1.0672-3.1654-3.5554-2.596-8.8511-0.37579-12.154z" fill="#d70047"/>
</g>
</g>
</g>
</svg>
