<?xml version="1.0" encoding="UTF-8" standalone="no"?>
<svg
   xmlns:dc="http://purl.org/dc/elements/1.1/"
   xmlns:cc="http://creativecommons.org/ns#"
   xmlns:rdf="http://www.w3.org/1999/02/22-rdf-syntax-ns#"
   xmlns:svg="http://www.w3.org/2000/svg"
   xmlns="http://www.w3.org/2000/svg"
   xmlns:sodipodi="http://sodipodi.sourceforge.net/DTD/sodipodi-0.dtd"
   xmlns:inkscape="http://www.inkscape.org/namespaces/inkscape"
   width="1920"
   height="720"
   version="1.1"
   viewBox="0 0 1920.0001 720"
   id="svg2"
   inkscape:version="0.91 r13725"
   sodipodi:docname="home-page-bg.svg">
  <defs
     id="defs42" />
  <sodipodi:namedview
     pagecolor="#ffffff"
     bordercolor="#666666"
     borderopacity="1"
     objecttolerance="10"
     gridtolerance="10"
     guidetolerance="10"
     inkscape:pageopacity="0"
     inkscape:pageshadow="2"
     inkscape:window-width="1920"
     inkscape:window-height="1056"
     id="namedview40"
     showgrid="false"
     inkscape:snap-page="true"
     inkscape:snap-bbox="true"
     inkscape:bbox-paths="true"
     inkscape:bbox-nodes="true"
     inkscape:snap-bbox-edge-midpoints="true"
     inkscape:zoom="0.64861226"
     inkscape:cx="931.7918"
     inkscape:cy="317.91944"
     inkscape:window-x="0"
     inkscape:window-y="24"
     inkscape:window-maximized="1"
     inkscape:current-layer="svg2" />
  <metadata
     id="metadata4">
    <rdf:RDF>
      <cc:Work
         rdf:about="">
        <dc:format>image/svg+xml</dc:format>
        <dc:type
           rdf:resource="http://purl.org/dc/dcmitype/StillImage" />
        <dc:title />
      </cc:Work>
    </rdf:RDF>
  </metadata>
  <path
     style="fill:#fbe2d3;fill-rule:evenodd;fill-opacity:1"
     inkscape:connector-curvature="0"
     id="path14"
     d="m 1920,265.95 c -1.9717,0.0575 -4.0599,0.27014 -6.2852,0.74804 -14.541,3.1229 -18.766,15.471 -18.766,15.471 0,0 -4.6335,-6.237 -14.023,-4.6406 -9.3898,1.5964 -10.467,8.8965 -10.467,8.8965 0,0 -5.6157,-8.9398 -20.318,-5.6856 -14.703,3.2543 -13.377,15.906 -13.377,15.906 0,0 -9.7005,-4.1071 -16.221,0.29883 -6.5205,4.40593 -5.1778,12.879 -5.1778,12.879 0,0 -4.7205,-5.9204 -13.604,-5.8203 -1.269,0.0143 -2.6233,0.15246 -4.0605,0.44727 -11.498,2.3585 -11.393,11.641 -11.393,11.641 0,0 -10.229,-2.912 -16.086,1.0293 -5.8572,3.9413 -5.5274,11.828 -5.5274,11.828 0,0 -12.96,-2.678 -18.926,4.0254 -5.9654,6.7034 -8.6816,15.193 -8.6816,15.193 0,0 -6.2158,-4.2877 -18.047,2.2285 -11.831,6.5162 -11.422,11.299 -11.422,11.299 0,0 -5.7878,-3.29 -18.34,-1.1856 -12.552,2.1044 -15.842,7.8906 -15.842,7.8906 0,0 -4.676,-2.353 -13.354,0.79688 -8.6777,3.1499 -10.484,10.186 -10.484,10.186 0,0 -6.6375,-1.1529 -12.953,1.4512 -6.3155,2.604 -7.6641,10.977 -7.6641,10.977 0,0 -11.682,-3.8181 -16.848,4.1934 -5.1654,8.0114 -2.1895,14.639 -2.1895,14.639 0,0 -13.215,-1.6241 -21.834,2.209 -8.6191,3.8331 -12.984,13.152 -12.984,13.152 0,0 -18.828,-2.8657 -30.238,0.51758 -11.41,3.3833 -15.541,15.436 -15.541,15.436 0,0 -9.2623,-3.6809 -18.623,-0.47265 -9.3608,3.2082 -13.697,12.869 -13.697,12.869 0,0 -5.6402,-1.5836 -9.5937,0.47461 -3.9534,2.0582 -3.8281,7.5527 -3.8281,7.5527 0,0 -6.2309,1.1794 -8.459,5.9863 -0.2773,-0.25699 -0.5766,-0.50882 -0.9121,-0.74414 -5.7799,-4.0539 -10.463,-2.1309 -10.463,-2.1309 0,0 -4.5955,-8.7565 -16.332,-8.6094 -11.737,0.14717 -13.385,9.2812 -13.385,9.2812 0,0 -9.4947,-4.7871 -15.99,-2.0215 -6.4953,2.7656 -7.6602,10.572 -7.6602,10.572 0,0 -12.223,-5.075 -19.346,0.38281 -7.1228,5.4577 -11.391,13.283 -11.391,13.283 0,0 -5.2967,-5.3822 -18.145,-1.2148 -12.848,4.1674 -13.348,8.9414 -13.348,8.9414 0,0 -5.0635,-4.3239 -17.787,-4.625 -12.724,-0.30117 -17.047,4.7617 -17.047,4.7617 0,0 -4.1458,-3.1929 -13.262,-1.7363 -9.116,1.4568 -12.219,8.0254 -12.219,8.0254 0,0 -6.3008,-2.3855 -12.994,-1.0195 -6.6934,1.366 -9.5977,9.334 -9.5977,9.334 0,0 -10.75,-5.9538 -17.334,0.93945 -6.584,6.8932 -4.914,13.963 -4.914,13.963 0,0 -12.67,-4.0877 -21.857,-1.9492 -9.1876,2.1383 -15.234,10.467 -15.234,10.467 0,0 -17.947,-6.3654 -29.791,-5.1953 -11.844,1.1702 -18.176,12.229 -18.176,12.229 0,0 -8.3994,-5.3633 -18.197,-3.9785 -9.798,1.3849 -15.879,10.055 -15.879,10.055 0,0 -5.241,-2.6192 -9.5117,-1.3438 -4.2706,1.2755 -5.1836,6.6953 -5.1836,6.6953 0,0 -6.8929,-0.0341 -9.8164,4.8301 -2.9238,4.8642 0.5957,10.75 0.5957,10.75 0,0 -15.506,-3.351 -21.516,4.6367 -0.069,0.0918 -0.1276,0.18653 -0.1934,0.27929 -0.9009,0.003 -1.4902,0.10743 -1.4902,0.10742 0,0 -0.25,-4.25 -4.5,-7.25 -4.25,-3 -12.5,0.25 -12.5,0.25 0,0 -10.25,-8 -15.25,-8 -5,0 -10.5,3.5 -10.5,3.5 0,0 -8,-4.25 -16.5,-3.75 -8.5,0.5 -15,5.25 -15,5.25 0,0 -6,-5.5 -14,-5 -8,0.5 -12.5,6 -12.5,6 0,0 -3.75,-4.25 -10.5,-4 -2.0562,0.0762 -4.0868,0.57285 -5.9199,1.2227 -1.313,-5.5481 -4.3172,-13.12 -11.201,-16.66 -11.54,-5.9353 -17.613,-5.2695 -17.613,-5.2695 0,0 -4.4228,-8.2974 -13.982,-10.586 -9.5595,-2.2884 -16.297,3.5449 -16.297,3.5449 0,0 5.679,-7.4724 0.44336,-13.572 -5.2357,-6.0998 -10.943,-5.2988 -10.943,-5.2988 0,0 -2.6074,-10.954 -15.598,-14.096 -12.99,-3.1417 -17.381,6.4727 -17.381,6.4727 0,0 -9.1272,-7.9571 -17.072,-6.7344 -7.9451,1.2226 -11.428,9.5078 -11.428,9.5078 0,0 -12.056,-9.0398 -21.451,-5.0234 -9.395,4.0162 -16.307,11.449 -16.307,11.449 0,0 -4.3275,-7.4282 -19.676,-6.4473 -15.348,0.98093 -17.246,6.1055 -17.246,6.1055 0,0 -4.3671,-6.1952 -18.32,-10.109 -13.953,-3.9143 -20.148,0.45313 -20.148,0.45313 0,0 -3.6768,-4.6891 -14.145,-5.6484 -10.468,-0.95903 -15.738,5.4141 -15.738,5.4141 0,0 -6.2795,-4.4039 -14.049,-4.7812 -7.7693,-0.37722 -13.219,7.5957 -13.219,7.5957 0,0 -10.184,-9.5955 -19.389,-3.8438 -9.2047,5.7517 -9.3516,14.023 -9.3516,14.023 0,0 -12.83,-8.0776 -23.568,-8.3047 -10.739,-0.22731 -19.754,7.2598 -19.754,7.2598 0,0 -18.01,-12.076 -31.406,-14.119 -13.397,-2.0432 -23.494,8.373 -23.494,8.373 0,0 -7.7477,-8.2674 -18.934,-9.5078 -7.544,-4.5202 -18.951,-3.4199 -18.951,-3.4199 0,0 4.7566,-6.191 2.0918,-12.078 -2.6645,-5.8871 -10.463,-6.7598 -10.463,-6.7598 0,0 -0.31875,-6.2497 -4.9805,-8.2558 -4.6618,-2.0061 -10.934,0.26367 -10.934,0.26367 0,0 -5.7342,-10.608 -16.633,-13.467 -10.898,-2.8591 -21.107,2.0977 -21.107,2.0977 0,0 -5.7008,-13.34 -18.941,-16.227 -13.241,-2.8863 -34.379,1.9453 -34.379,1.9453 0,0 -5.7389,-10.219 -15.848,-13.85 -10.109,-3.631 -24.979,-0.67969 -24.979,-0.67969 0,0 2.8238,-7.7746 -3.7129,-16.439 -6.5366,-8.6649 -19.482,-3.3496 -19.482,-3.3496 0,0 -2.2333,-9.3961 -9.623,-11.824 -7.3898,-2.4282 -14.83,-0.5625 -14.83,-0.5625 0,0 -2.6421,-7.8388 -12.76,-10.689 -10.118,-2.8503 -15.229,0.21485 -15.229,0.21485 0,0 -4.2204,-6.2963 -18.65,-7.6348 -14.43,-1.3386 -20.727,2.8828 -20.727,2.8828 0,0 0.0647,-5.4644 -13.916,-11.873 -13.981,-6.4087 -20.682,-1.0215 -20.682,-1.0215 0,0 -3.7954,-9.413 -11.131,-16.525 -7.3356,-7.1126 -21.828,-2.9863 -21.828,-2.9863 1e-5,0 -0.28625,-8.9837 -7.2676,-12.969 -6.9813,-3.985 -18.352,0.17773 -18.352,0.17773 0,0 -0.65772,-10.548 -13.912,-12.264 -13.254,-1.7152 -19.609,7.582 -19.609,7.582 0,0 -3.0804,-7.9769 -13.115,-10.221 -10.035,-2.2438 -16.193,4.332 -16.193,4.332 0,0 -1.5155,-9.5209 -10.949,-13.141 -9.4337,-3.6197 -16.844,-0.61914 -16.844,-0.61914 0,0 -5.1838,-8.2969 -16.334,-10.635 -11.52,-2.4153 -20.431,-0.45509 -22.064,-0.0547 l 0,314.44 428.5,3.6152 c -0.5765,6.0795 0.17205,14.034 6.1094,20.236 11.108,11.603 32.52,17.859 32.52,17.859 l 160.99,60.146 331.16,0 19.82,-79.963 104.74004,4.2422 c 4.8787,4.5308 10.389,5.123 10.389,5.123 0,0 -2.0953,16.673 9.8769,24.135 11.972,7.4617 31.553,8.1367 31.553,8.1367 l 354.41,38.326 78.092,0 -0.9492,-138.72 352.79,-29.014 0,-286.32 z m -443.02,212.82 c 0.051,0.0668 0.063,0.0828 0.1054,0.13672 -0.175,0.21788 -0.2851,0.36523 -0.2851,0.36523 0,0 0.079,-0.20567 0.1797,-0.50195 z" />
  <path
     style="fill:#f6b590;fill-rule:evenodd;fill-opacity:1"
     inkscape:connector-curvature="0"
     id="path16"
     d="m 1905.6,427.49 c -1.6529,-0.0412 -3.3193,0.0246 -4.9727,0.22852 -13.227,1.631 -19.199,11.086 -19.199,11.086 0,0 -10.492,-9.3018 -26.232,-7.7656 -15.741,1.5363 -25.703,14.133 -25.703,14.133 0,0 -14.152,-7.2126 -30.867,-5.5195 -16.715,1.6931 -30.965,12.482 -30.965,12.482 0,0 -11.813,-5.0923 -21.553,-3.5234 -9.7399,1.5688 -27.197,20.369 -27.197,20.369 0,0 -17.09,-3.7419 -24.428,3.4355 -7.3375,7.1775 -6.4903,15.533 -6.4903,15.533 0,0 -11.593,-0.63047 -19.607,11.652 -2.4782,3.7983 -2.9635,8.0889 -2.4551,12.203 -8.9697,-2.9885 -15.49,0.83789 -15.49,0.83789 0,0 -2.7171,-6.844 -11.324,-9.4648 -8.6075,-2.6207 -20.393,7.1934 -20.393,7.1934 0,0 -21.174,-7.5763 -29.385,-4.8633 -8.2113,2.7129 -15.346,11.445 -15.346,11.445 0,0 -15.443,-2.6401 -29.131,2.793 -13.688,5.4331 -21.785,16.762 -21.785,16.762 0,0 -12.838,-5.7771 -25.705,-0.61524 -12.867,5.1618 -17.271,16.635 -17.271,16.635 0,0 -8.4645,-4.9441 -19.414,-0.87109 -10.95,4.0731 -19.047,15.4 -19.047,15.4 l 0.9785,3.4277 c -7.4722,2.857 -12.238,7.1172 -12.238,7.1172 0,0 -12.72,-9.5163 -29.479,-10.691 -16.759,-1.175 -32.637,7.0332 -32.637,7.0332 0,0 -10.774,-7.0278 -20.639,-7.1387 -9.8648,-0.111 -30.264,15.445 -30.264,15.445 0,0 -16.206,-6.5941 -24.658,-0.76953 -8.4516,5.8246 -9.0391,14.203 -9.0391,14.203 0,0 -10.755,-2.4597 -20.549,7.3691 -0.4131,-0.0528 -0.8329,-0.0941 -1.2656,-0.11133 -11.074,-0.4394 -18.754,8.0176 -18.754,8.0176 0,0 2.9221,-18.725 -8.2735,-25.045 -11.1956,-6.32 -19.961,-1.1465 -19.961,-1.1465 0,0 -2.7171,-6.844 -11.324,-9.4648 -8.6075,-2.6207 -20.393,7.1934 -20.393,7.1934 0,0 -21.174,-7.5763 -29.385,-4.8633 -8.2113,2.7129 -15.344,11.445 -15.344,11.445 0,0 -0.94,-0.1568 -2.5118,-0.31445 -1.2868,-0.52617 -2.6813,-0.98641 -4.1992,-1.3535 -7.7806,-1.8817 -12.942,0.11038 -16.15,2.5312 -2.0917,0.48957 -4.2005,1.1077 -6.2715,1.9297 -0.517,0.20527 -1.0106,0.43313 -1.5117,0.6543 -3.9227,-2.6725 -10.629,-6.3724 -16.793,-5.4238 -9.3917,1.4453 -13.508,11.24 -13.508,11.24 0,0 -14.252,-10.685 -25.358,-5.9375 -11.106,4.7474 -19.275,13.533 -19.275,13.533 0,0 -5.1168,-8.7826 -23.26,-7.623 -18.143,1.1595 -20.385,7.2188 -20.385,7.2188 0,0 -5.1625,-7.3223 -21.656,-11.949 -16.494,-4.627 -23.818,0.53516 -23.818,0.53516 0,0 -4.3432,-5.5437 -16.717,-6.6777 -12.374,-1.1336 -18.607,6.4004 -18.607,6.4004 0,0 -7.4216,-5.2063 -16.605,-5.6523 -9.184,-0.4459 -15.625,8.9805 -15.625,8.9805 0,0 -12.039,-11.344 -22.92,-4.5449 -10.881,6.799 -11.055,16.576 -11.055,16.576 0,0 -15.165,-9.548 -27.859,-9.8164 -12.694,-0.2687 -23.35,8.582 -23.35,8.582 0,0 -1.8635,-1.2267 -4.7148,-2.9473 -0.39865,-3.3167 -1.5916,-6.5614 -4.1523,-9.1602 -9.0444,-9.1785 -18.918,-6.6113 -18.918,-6.6113 0,0 -0.72789,-7.3458 -8.2988,-12.246 -7.571,-4.9003 -21.637,1.3047 -21.637,1.3047 0,0 -18.312,-13.142 -26.973,-12.793 -8.661,0.34858 -17.943,6.793 -17.943,6.793 0,0 -14.155,-6.8024 -28.844,-5.3438 -14.689,1.4586 -25.617,10.139 -25.617,10.139 0,0 -10.777,-9.1094 -24.6,-7.6856 -13.823,1.4238 -21.232,11.266 -21.232,11.266 0,0 -6.792,-7.1009 -18.467,-6.1973 -10.291,0.79654 -19.979,7.6204 -22.137,9.2305 -0.7238,-1.3513 -6.272,-11.036 -18.67,-14.689 -13.329,-3.9278 -25.59,3.0566 -25.59,3.0566 0,0 -9.1558,-10.532 -23.33,-14.652 -14.174,-4.1204 -29.334,-0.0195 -29.334,-0.0195 0,0 -7.9473,-8.0362 -16.398,-9.9629 -8.4511,-1.9267 -28.857,7.6465 -28.857,7.6465 10e-6,0 -12.692,-8.6732 -21.031,-5.2402 -1.6179,0.66602 -2.9939,1.4713 -4.1699,2.334 -11.224,-3.6458 -21.355,-2.0664 -21.355,-2.0664 0,0 -7.1923,-6.8819 -19.238,-10.277 -12.046,-3.3955 -17.828,2.6953 -17.828,2.6953 -1.9867,-4.5126 -3.3227,-9.0759 -18.834,-16.9 -15.511,-7.8244 -24.262,-1.6934 -24.262,-1.6934 0,0 -8.9373,-3.0357 -15.709,2.2344 -1.9,-6.2745 -17.693,-11.727 -17.693,-11.727 0,0 0.23015,-13.676 -10.146,-18.158 -10.377,-4.4822 -20.789,0.74609 -20.789,0.74609 0,0 9.6509,-16.745 1.3164,-26.867 -8.3345,-10.122 -18.572,-8.416 -18.572,-8.416 0,0 -0.074,-7.5097 -7.3027,-13.162 -7.229,-5.6525 -22.045,-0.63867 -22.045,-0.63867 0,0 -17.369,-14.981 -26.178,-15.412 -8.8093,-0.43173 -18.801,5.2598 -18.801,5.2598 0,0 -13.729,-8.1783 -28.748,-8.0312 -15.019,0.14705 -26.881,7.9551 -26.881,7.9551 0,0 -10.096,-10.208 -24.234,-10.018 -14.138,0.19023 -22.541,9.4922 -22.541,9.4922 0,0 -6.2403,-7.8128 -18.154,-7.9551 -0.69052,-0.008 -1.3805,0.0165 -2.0684,0.0586 l 0,140.9 302.1,36.727 c -0.45732,5.8571 5.3984,14.334 5.3984,14.334 0,0 -21.588,-6.6994 -38.342,-3.4062 -16.753,3.2928 -20.451,17.563 -23.527,21.307 l -18.436,18.469 335.77,62.369 1.1738,0 1.5586,-8.4023 29.953,0.01 c 3.1743,4.5662 7.0468,7.1453 9.3438,8.3926 l 928.54,0 -1.3204,-44.641 276.62,-69.777 111.16,-22.555 0,-152.9 c -4.0134,-1.2887 -9.1247,-2.5092 -14.402,-2.6406 l 0,-0.002 z" />
  <path
     style="fill:#909f65;fill-rule:evenodd"
     inkscape:connector-curvature="0"
     id="path18"
     d="m 1333,609.69 c -1.7861,-0.0163 -3.7567,0.27828 -5.9219,1 -13.857,4.6189 -14.188,13.857 -14.188,13.857 0,0 -14.186,-8.2486 -27.053,-0.99024 -12.867,7.2584 -11.549,16.826 -11.549,16.826 0,0 -10.228,1.6511 -13.527,7.5898 -3.2992,5.9386 -0.6582,12.537 -0.6582,12.537 0,0 -9.2396,-0.99082 -16.168,6.2676 -6.9285,7.2584 -0.33,18.477 -0.33,18.477 0,0 -14.845,2.6402 -18.145,14.518 -2.7274,9.8186 2.1611,17.743 3.9551,20.227 l 206.57,0 c 2.0657,-4.5432 3.2415,-10.321 0.959,-16.598 -5.2789,-14.517 -21.445,-16.826 -21.445,-16.826 0,0 9.8983,-22.765 -7.5878,-35.303 -17.486,-12.537 -32.004,-5.6094 -32.004,-5.6094 0,0 3.3802,-6.3822 -2.5585,-12.518 -5.9387,-6.1358 -11.975,-4.2109 -11.975,-4.2109 0,0 0.6772,-4.8815 -4.9316,-8.3457 -5.6088,-3.4643 -9.5684,-1.6504 -9.5684,-1.6504 0,0 -4.2283,-9.16 -13.873,-9.248 z" />
  <path
     style="fill:#909f65;fill-rule:evenodd"
     inkscape:connector-curvature="0"
     id="path20"
     d="m 58.029,469.69 c -1.7861,-0.0163 -3.7567,0.27828 -5.9219,1 -13.857,4.6189 -14.188,13.857 -14.188,13.857 0,0 -14.186,-8.2486 -27.053,-0.99024 -6.9613,3.9269 -9.7553,8.5199 -10.867,11.918 l 0,166.79 132.28,-3.1816 c 0,0 29.034,-5.2784 34.973,-29.033 5.939,-23.7546 -13.197,-40.25 -13.197,-40.25 0,0 13.197,-11.878 7.918,-26.395 -5.2789,-14.517 -21.445,-16.826 -21.445,-16.826 0,0 9.8982,-22.765 -7.5879,-35.303 -17.486,-12.537 -32.004,-5.6094 -32.004,-5.6094 0,0 3.3801,-6.3822 -2.5586,-12.518 -5.9387,-6.1354 -11.975,-4.2109 -11.975,-4.2109 0,0 0.67716,-4.8815 -4.9316,-8.3457 -5.6088,-3.4643 -9.5684,-1.6504 -9.5684,-1.6504 0,0 -4.2283,-9.16 -13.873,-9.248 z" />
  <path
     style="fill:#f07814;fill-rule:evenodd"
     inkscape:connector-curvature="0"
     id="path22"
     d="m 451.33,550.13 c -14.014,0.19945 -23.109,12.553 -23.109,12.553 0,0 -4.2337,-8.8721 -19.709,-7.5098 -15.475,1.3622 -15.82,16.43 -15.82,16.43 0,0 -4.6299,-0.0931 -8.6348,5.6621 -4.005,5.7552 -1.2793,10.23 -1.2793,10.23 0,0 -6.7011,0.67879 -9.8965,9.1797 -3.1954,8.5009 2.8027,13.297 2.8027,13.297 0,0 -17.096,-0.61157 -28.846,19.025 -11.75,19.637 7.5469,37.656 7.5469,37.656 0,0 -14.795,9.0996 -13.797,25.498 0.9979,16.399 18.904,22.396 18.904,22.396 0,0 -0.98161,2.0719 -1.9883,5.4551 l 182.97,0 58.891,-23.898 c 0,0 17.498,-12.567 10.736,-29.906 -6.7619,-17.339 -26.1,-14.301 -26.1,-14.301 0,0 1.9523,-15.767 -8.1855,-25.902 -10.138,-10.136 -26.006,-4.3945 -26.006,-4.3945 0,0 3.8115,-12.366 -4.4375,-22.557 -8.2491,-10.19 -23.852,-6.4766 -23.852,-6.4766 0,0 1.687,-13.74 -8.1465,-17.887 -9.8334,-4.1472 -18.426,0.73047 -18.426,0.73047 0,0 -0.22138,-7.5547 -5.9551,-11.951 -5.7339,-4.3966 -16.41,-1.6738 -16.41,-1.6738 0,0 -2.7654,-9.8934 -18.393,-11.525 -0.97672,-0.102 -1.931,-0.14415 -2.8652,-0.13086 z" />
  <path
     style="fill:#f38b51;fill-rule:evenodd"
     inkscape:connector-curvature="0"
     id="path24"
     d="m 1918,528.53 c -0.994,0.0103 -1.99,0.0561 -2.9824,0.14453 -15.878,1.4144 -23.398,12.477 -23.398,12.477 0,0 -12.166,-11.543 -31.045,-10.344 -18.88,1.1994 -31.299,15.854 -31.299,15.854 0,0 -16.628,-9.1953 -36.678,-7.8477 -20.05,1.3476 -37.521,13.668 -37.521,13.668 0,0 -11.528,-8.598 -32.162,-3.0508 -20.634,5.5472 -26.795,21.217 -26.795,21.217 0,0 -12.59,-4.1943 -24.039,2.498 -11.449,6.6923 -13.691,18.928 -13.691,18.928 0,0 -9.4447,0.55185 -18.963,8.8066 -9.5181,8.2548 -7.3457,24.607 -7.3457,24.607 0,0 -4.2516,-1.7966 -6.6504,-2.4668 -18.22,-5.0904 -34.774,4.6524 -34.774,4.6524 0,0 -12.667,-14.162 -32.041,-19.498 -19.374,-5.3364 -39.93,0.53711 -39.93,0.53711 0,0 -8.9409,-13.17 -28.172,-15.1 -19.231,-1.9298 -33.48,12.816 -33.48,12.816 0,0 -9.6634,-8.5544 -22.982,-6.4609 -13.319,2.0935 -19.701,14.254 -19.701,14.254 0,0 -13.011,-3.5037 -24.518,6.5547 -11.507,10.058 -9.8906,33.166 -9.8906,33.166 0,0 -11.673,-10.331 -26.629,-8.0898 -14.957,2.2415 -19.346,20.008 -19.346,20.008 0,0 -7.9316,1.065 -13.246,8.9707 -5.3145,7.9057 -1.1524,20.9 -1.1524,20.9 0,0 -16.37,-15.994 -34.102,-12.248 -17.732,3.746 -23.721,13.414 -31.67,23.248 -4.9137,-1.5506 -10.348,-2.6576 -16.205,-2.8555 -20.824,-0.7038 -37.024,7.0723 -37.024,7.0723 0,0 1.966,-11.532 -2.5937,-18.301 -4.5596,-6.7688 -11.598,-8.4316 -11.598,-8.4316 0,0 -2.0434,-13.144 -18.777,-15.271 -13.448,-1.7093 -22.25,11.285 -22.25,11.285 0,0 -3.4051,-17.47 -15.1,-24.908 -11.6949,-7.438 -21.453,-4.8047 -21.453,-4.8047 0,0 -3.6206,-8.8477 -17.871,-10.387 -14.2504,-1.5393 -21.022,10.146 -21.022,10.146 0,0 -14.341,-10.648 -32.102,-6.416 -17.76,4.2323 -21.969,18.021 -21.969,18.021 0,0 -19.059,-1.9863 -35.332,5.7383 -16.273,7.7246 -25.252,22.197 -25.252,22.197 0,0 -16.13,-6.0253 -31.422,1.3027 -10.192,4.8838 -15.554,12.871 -18.01,17.668 -4.787,-3.0827 -10.549,-5.9946 -16.693,-7.3476 -16.096,-3.5443 -26.951,5.0215 -26.951,5.0215 0,0 -8.4051,-15.166 -27.393,-19.855 -18.987,-4.6897 -35.791,5.8965 -35.791,5.8965 0,0 -13.533,-14.237 -33.721,-19.145 -20.188,-4.9078 -41.246,1.8047 -41.246,1.8047 0,0 -10.618,-9.7411 -30.135,-11.215 -19.517,-1.4739 -33.646,10.787 -33.646,10.787 0,0 -12.378,-9.1904 -25.568,-5.5215 -13.191,3.669 -18.297,14.912 -18.297,14.912 0,0 -14.199,-2.7738 -24.566,4.0117 -10.367,6.7856 -11.651,18.604 -11.783,21.072 -16.984,-2.2481 -33.025,-0.38281 -33.025,-0.38282 0,0 13.773,-7.3215 11.848,-20.512 -1.9253,-13.19 -14.941,-12.729 -14.941,-12.729 0,0 -3.82,-13.608 -16.965,-19.604 -13.145,-5.996 -25.957,0.25976 -25.957,0.25976 0,0 7.6772,-19.194 -2.0527,-32.287 -10.372,-13.957 -24.91,-12.281 -24.91,-12.281 0,0 -1.0702,-11.148 -15.176,-16.523 -14.106,-5.3752 -25.219,1.7598 -25.219,1.7598 0,0 -8.448,-11.638 -28.002,-14.084 -19.554,-2.4464 -32.611,5.9883 -32.611,5.9883 0,0 -19.1,-9.1813 -38.922,-7.2129 -19.821,1.9684 -34.568,13.682 -34.568,13.682 0,0 -9.2288,-9.8258 -25.682,-10.635 -16.453,-0.80896 -24.439,5.7383 -24.439,5.7383 0,0 -8.0938,-10.412 -21.99,-12.77 -13.8962,-2.358 -26.029,3.6641 -26.029,3.6641 0,0 -7.4038,-14.885 -25.391,-20.186 -17.987,-5.3003 -34.531,4.125 -34.531,4.125 -1e-5,0 -12.357,-14.215 -31.484,-19.775 -19.127,-5.5603 -39.584,-0.0254 -39.584,-0.0254 0,0 -7.9747,-11.093 -29.754,-12.318 -21.779,-1.2249 -31.316,9.1914 -31.316,9.1914 0,0 -3.9489,-2.6819 -9.2832,-4.9707 l 0,182.68 1920,0 0,-191.42 c -0.6793,-0.0258 -1.3591,-0.052 -2.041,-0.0449 z" />
  <path
     style="fill:#f34d4d;fill-rule:evenodd"
     inkscape:connector-curvature="0"
     id="path26"
     d="m 607.95,609.69 c -9.6448,0.0881 -13.873,9.248 -13.873,9.248 0,0 -3.9576,-1.8138 -9.5664,1.6504 -5.6088,3.4642 -4.9336,8.3457 -4.9336,8.3457 0,0 -6.034,-1.9245 -11.973,4.2109 -5.9387,6.1354 -2.5606,12.518 -2.5606,12.518 0,0 -14.516,-6.9279 -32.002,5.6094 -17.486,12.537 -7.5898,35.303 -7.5898,35.303 0,0 -16.165,2.3094 -21.443,16.826 -2.2826,6.2771 -1.1067,12.054 0.95898,16.598 l 206.57,0 c 1.7946,-2.4848 6.682,-10.409 3.9551,-20.227 -3.2993,-11.877 -18.146,-14.518 -18.146,-14.518 0,0 6.5984,-11.218 -0.33007,-18.477 -6.9285,-7.2584 -16.166,-6.2676 -16.166,-6.2676 0,0 2.6391,-6.5984 -0.66016,-12.537 -3.2993,-5.9387 -13.527,-7.5898 -13.527,-7.5898 0,0 1.3203,-9.5678 -11.547,-16.826 -12.867,-7.2584 -27.055,0.99024 -27.055,0.99024 0,0 -0.3286,-9.2384 -14.186,-13.857 -2.1652,-0.72172 -4.1378,-1.0163 -5.9238,-1 z" />
  <path
     style="fill:#f34d4d;fill-rule:evenodd"
     inkscape:connector-curvature="0"
     id="path28"
     d="m 1390.3,676.92 c -11.306,0.0455 -16.127,12.113 -16.127,12.113 0,0 -16.17,-8.9712 -30.984,1.1152 -12.478,8.4959 -11.808,24.883 -11.287,29.855 l 145.61,0 c -2.9779,-2.2909 -6.4238,-2.5781 -6.4238,-2.5781 0,0 0.2451,-3.18 -3.5527,-6.1563 -3.7978,-2.9763 -6.9786,-1.2773 -6.9786,-1.2773 0,0 -0.2059,-4.6308 -5.9218,-7.1582 -5.7159,-2.5274 -9.2442,1.4082 -9.2442,1.4082 0,0 1.088,-11.725 -11.945,-20.564 -13.033,-8.839 -26.166,3.7168 -26.166,3.7168 0,0 -5.6747,-10.52 -16.98,-10.475 z" />
  <path
     style="fill:#f07a14;fill-rule:evenodd"
     inkscape:connector-curvature="0"
     id="path30"
     d="m 1620.9,598.13 c -0.9342,-0.0133 -1.8904,0.0289 -2.8672,0.13086 -15.627,1.632 -18.391,11.525 -18.391,11.525 0,0 -10.678,-2.7227 -16.412,1.6738 -5.7337,4.3966 -5.9531,11.951 -5.9531,11.951 0,0 -8.5924,-4.8776 -18.426,-0.73047 -9.8335,4.1471 -8.1465,17.887 -8.1465,17.887 0,0 -15.602,-3.7139 -23.852,6.4766 -8.249,10.19 -4.4375,22.557 -4.4375,22.557 0,0 -15.87,-5.7411 -26.008,4.3945 -10.138,10.135 -8.1835,25.902 -8.1835,25.902 0,0 -19.338,-3.0385 -26.1,14.301 -0.7814,2.0037 -1.2278,3.9404 -1.4257,5.8047 l 263.32,0 c -3.1947,-3.5029 -6.1758,-5.3496 -6.1758,-5.3496 0,0 19.297,-18.019 7.5469,-37.656 -11.75,-19.637 -28.846,-19.025 -28.846,-19.025 0,0 5.9982,-4.796 2.8028,-13.297 -3.1954,-8.5009 -9.8965,-9.1797 -9.8965,-9.1797 0,0 2.7257,-4.4754 -1.2793,-10.23 -4.0049,-5.7552 -8.6348,-5.6621 -8.6348,-5.6621 0,0 -0.3452,-15.067 -15.82,-16.43 -15.475,-1.3624 -19.709,7.5098 -19.709,7.5098 0,0 -9.0959,-12.353 -23.109,-12.553 z" />
  <path
     style="fill:#86945d;fill-rule:evenodd"
     inkscape:connector-curvature="0"
     id="path32"
     d="m 1834.3,567.92 c -2.1558,-0.0197 -4.537,0.3359 -7.1504,1.207 -16.726,5.5751 -17.123,16.727 -17.123,16.727 0,0 -17.123,-9.9563 -32.654,-1.1953 -15.531,8.761 -13.94,20.311 -13.94,20.311 0,0 -12.344,1.9901 -16.326,9.1582 -3.9821,7.168 -0.7969,15.133 -0.7969,15.133 0,0 -11.151,-1.1946 -19.514,7.5664 -8.3628,8.761 -0.3984,22.301 -0.3984,22.301 0,0 -17.92,3.1853 -21.902,17.521 -3.9823,14.336 5.5762,25.486 5.5762,25.486 0,0 -19.114,1.1954 -25.088,16.328 -0.2026,0.5133 -0.3859,1.0274 -0.5547,1.541 l 235.55,0 0,-104.94 c -18.925,-10.853 -33.889,-3.7285 -33.889,-3.7285 0,0 4.0802,-7.7039 -3.0879,-15.109 -7.1681,-7.4051 -14.453,-5.084 -14.453,-5.084 0,0 0.8168,-5.8909 -5.9531,-10.072 -6.7699,-4.1815 -11.549,-1.9902 -11.549,-1.9902 0,0 -5.1028,-11.058 -16.744,-11.164 z" />
  <path
     style="fill:#f07814;fill-rule:evenodd"
     inkscape:connector-curvature="0"
     id="path34"
     d="m 175.07,545.13 c -1.0927,-0.0155 -2.2111,0.033 -3.3535,0.15235 -18.278,1.9089 -21.512,13.48 -21.512,13.48 0,0 -12.489,-3.1835 -19.195,1.959 -6.7064,5.1424 -6.9629,13.98 -6.9629,13.98 0,0 -10.053,-5.7062 -21.555,-0.85547 -11.502,4.8507 -9.5273,20.92 -9.5273,20.92 0,0 -18.25,-4.3432 -27.898,7.5762 -9.6485,11.919 -5.1895,26.383 -5.1895,26.383 0,0 -18.562,-6.7145 -30.42,5.1406 -11.858,11.855 -9.5723,30.297 -9.5723,30.297 0,0 -10.643,-1.671 -19.881,3.8262 l 0,46.324 c 1.1552,1.0113 1.9102,1.5566 1.9102,1.5566 l 10.184,4.1328 290.38,0 c 1.1447,-2.5862 1.9262,-5.4915 2.125,-8.7578 1.1672,-19.18 -16.137,-29.824 -16.137,-29.824 0,0 22.572,-21.074 8.8281,-44.043 -13.743,-22.968 -33.74,-22.254 -33.74,-22.254 0,0 7.0168,-5.6077 3.2793,-15.551 -3.7375,-9.9431 -11.576,-10.738 -11.576,-10.738 0,0 3.1884,-5.2352 -1.4961,-11.967 -4.6843,-6.7316 -10.1,-6.6211 -10.1,-6.6211 0,0 -0.40341,-17.625 -18.504,-19.219 -18.101,-1.5934 -23.053,8.7852 -23.053,8.7852 0,0 -10.638,-14.45 -27.029,-14.684 z" />
  <path
     style="fill:#f07814;fill-rule:evenodd"
     inkscape:connector-curvature="0"
     id="path36"
     d="m 397.1,627.15 c -1.0927,-0.0155 -2.2111,0.0311 -3.3535,0.15039 -18.278,1.9089 -21.512,13.482 -21.512,13.482 0,0 -12.489,-3.1855 -19.195,1.957 -6.7064,5.1424 -6.9629,13.98 -6.9629,13.98 0,0 -10.051,-5.7062 -21.553,-0.85547 -11.502,4.8507 -9.5293,20.92 -9.5293,20.92 0,0 -18.25,-4.3413 -27.898,7.5781 -9.6485,11.919 -5.1894,26.383 -5.1894,26.383 0,0 -18.56,-6.7164 -30.418,5.1387 -1.3018,1.3015 -2.4256,2.6861 -3.4082,4.1133 l 271.57,0 c -0.11478,-0.20076 -0.21173,-0.4005 -0.33203,-0.60156 -13.743,-22.968 -33.74,-22.252 -33.74,-22.252 0,0 7.0168,-5.6096 3.2793,-15.553 -3.7375,-9.9431 -11.576,-10.738 -11.576,-10.738 0,0 3.1884,-5.2333 -1.4961,-11.965 -4.6843,-6.7316 -10.1,-6.623 -10.1,-6.623 0,0 -0.40341,-17.624 -18.504,-19.217 -18.101,-1.5934 -23.053,8.7832 -23.053,8.7832 0,0 -10.638,-14.448 -27.029,-14.682 z" />
  <rect
     style="fill:#ffffff;fill-opacity:0.52941179"
     id="rect38"
     height="720"
     width="1920"
     y="-0.001"
     x="-0.0099999998" />
</svg>
