<?xml version="1.0" encoding="UTF-8" standalone="no"?>
<svg
   xmlns:dc="http://purl.org/dc/elements/1.1/"
   xmlns:cc="http://creativecommons.org/ns#"
   xmlns:rdf="http://www.w3.org/1999/02/22-rdf-syntax-ns#"
   xmlns:svg="http://www.w3.org/2000/svg"
   xmlns="http://www.w3.org/2000/svg"
   xmlns:sodipodi="http://sodipodi.sourceforge.net/DTD/sodipodi-0.dtd"
   xmlns:inkscape="http://www.inkscape.org/namespaces/inkscape"
   width="50"
   height="50"
   viewBox="0 0 50 50"
   id="svg4355"
   version="1.1"
   inkscape:version="0.91 r13725"
   sodipodi:docname="rose-favicon.svg"
   inkscape:export-filename="/var/www/html/tfs-present/assets/images/favicon/favicon-original.png"
   inkscape:export-xdpi="180"
   inkscape:export-ydpi="180">
  <sodipodi:namedview
     pagecolor="#ffffff"
     bordercolor="#666666"
     borderopacity="1"
     objecttolerance="10"
     gridtolerance="10"
     guidetolerance="10"
     inkscape:pageopacity="0"
     inkscape:pageshadow="2"
     inkscape:window-width="1920"
     inkscape:window-height="1056"
     id="namedview23"
     showgrid="false"
     inkscape:zoom="9.44"
     inkscape:cx="13.050106"
     inkscape:cy="16.736661"
     inkscape:window-x="0"
     inkscape:window-y="24"
     inkscape:window-maximized="1"
     inkscape:current-layer="svg4355"
     inkscape:snap-bbox="true"
     inkscape:bbox-paths="true"
     inkscape:bbox-nodes="true"
     inkscape:snap-bbox-edge-midpoints="true"
     inkscape:snap-page="true" />
  <defs
     id="defs4357" />
  <metadata
     id="metadata4360">
    <rdf:RDF>
      <cc:Work
         rdf:about="">
        <dc:format>image/svg+xml</dc:format>
        <dc:type
           rdf:resource="http://purl.org/dc/dcmitype/StillImage" />
        <dc:title></dc:title>
      </cc:Work>
    </rdf:RDF>
  </metadata>
  <g
     transform="translate(-45.550847,-957.87057)"
     id="layer1">
    <g
       transform="translate(3.4593876,-2.6013083)"
       id="g4939">
      <g
         id="g6470"
         transform="matrix(0.96879613,0,0,0.96879613,-679.48849,1502.2201)">
        <path
           id="path5870"
           d="m 724.47258,-502.07078 c 0.29321,-0.26853 0.73978,-0.29372 1.06262,-0.0617 3.91119,2.81206 6.11491,11.51317 4.01572,15.84693 -0.17325,0.35781 -0.57801,0.54819 -0.96375,0.45172 -7.35094,-1.83941 -9.70324,-11.11819 -4.11459,-16.23696 z"
           style="fill:#9cdd05"
           inkscape:connector-curvature="0" />
        <path
           id="path5872"
           d="m 726.84562,-500.89661 c -0.42259,-0.49712 -0.86299,-0.91404 -1.31059,-1.23586 -0.32284,-0.23203 -0.76942,-0.20684 -1.06262,0.0617 -5.58779,5.11792 -3.23738,14.39738 4.11442,16.23696 0.38574,0.0965 0.79033,-0.0939 0.96375,-0.45172 0.0697,-0.14411 0.13383,-0.2968 0.19501,-0.45377 -5.10438,-2.82063 -6.49859,-9.53359 -2.89997,-14.1573 z"
           style="fill:#94c609"
           inkscape:connector-curvature="0" />
        <path
           id="path5874"
           d="m 763.40122,-520.75891 c 0.40613,-0.58949 0.25721,-1.39644 -0.33227,-1.80257 -0.58949,-0.40595 -1.39661,-0.25721 -1.80257,0.33228 -3.34037,4.85025 -7.4529,10.29478 -12.3633,15.91154 l -0.43561,-5.29083 c -0.0588,-0.71338 -0.68545,-1.24426 -1.39797,-1.18531 -0.71339,0.0588 -1.2441,0.68459 -1.18532,1.39797 l 0.63764,7.74491 c -11.47239,12.57751 -24.94458,23.52724 -40.2824,31.56861 -0.63387,0.33244 -0.87857,1.11591 -0.54613,1.74978 0.23168,0.44195 0.68254,0.69471 1.14899,0.69471 0.20272,0 0.4087,-0.0478 0.60062,-0.14857 10.9398,-5.73551 21.38333,-13.18842 31.10422,-22.18787 1.00949,-0.34804 5.50931,-1.75219 11.76764,-1.51125 0.71219,0.0286 1.31761,-0.52951 1.3452,-1.24512 0.0276,-0.71527 -0.52985,-1.31761 -1.24529,-1.34503 -3.20071,-0.12355 -5.96754,0.15251 -8.11985,0.52026 7.7509,-7.64381 14.85183,-16.12197 21.1064,-25.20351 z"
           style="fill:#83aa2e"
           inkscape:connector-curvature="0" />
        <path
           id="path5876"
           d="m 762.02261,-486.24629 c 5.1503,0.31307 9.79988,-2.29849 12.33691,-6.3992 0.29783,-0.48153 0.21472,-1.113 -0.1957,-1.50302 -2.23457,-2.12387 -6.47408,-3.71429 -11.41704,-4.01469 -4.94295,-0.3004 -9.34389,0.76496 -11.81922,2.60249 -0.45463,0.33741 -0.61365,0.95414 -0.37632,1.46823 2.02208,4.3778 6.32106,7.53311 11.47137,7.84619 z"
           style="fill:#9cdd05"
           inkscape:connector-curvature="0" />
        <path
           id="path5878"
           d="m 754.00763,-494.09248 c -0.23734,-0.51391 -0.0783,-1.13065 0.37631,-1.46823 1.89647,-1.40792 4.92394,-2.36155 8.45864,-2.59598 -0.0321,-0.002 -0.0638,-0.005 -0.0958,-0.007 -4.94295,-0.3004 -9.34389,0.76496 -11.81922,2.60266 -0.45463,0.33741 -0.61365,0.95414 -0.37632,1.46823 2.02191,4.3778 6.32089,7.53311 11.47119,7.84619 0.86761,0.0528 1.72049,0.0206 2.55194,-0.0859 -4.74606,-0.60542 -8.66444,-3.64145 -10.56674,-7.76033 z"
           style="fill:#94c609"
           inkscape:connector-curvature="0" />
        <path
           id="path5880"
           d="m 769.0651,-517.39489 c -1.53952,-0.41316 -2.99525,-1.22319 -4.20113,-2.43421 -0.87138,-0.87498 -1.49805,-1.88173 -1.90949,-2.95463 -1.13871,0.15457 -2.32265,0.0884 -3.50866,-0.25551 -1.64131,-0.47604 -3.05111,-1.36387 -4.1528,-2.5156 -2.09337,0.17308 -3.87468,0.78707 -4.94535,1.65228 -0.24265,0.19621 -0.31514,0.53962 -0.1712,0.81774 1.22645,2.36841 3.68053,4.0116 6.53423,4.06901 1.9789,0.0398 3.78866,-0.69145 5.1462,-1.91549 -0.42173,1.77857 -0.19364,3.7172 0.79186,5.43374 1.42112,2.47533 4.04125,3.83869 6.70748,3.77666 0.31291,-0.007 0.57955,-0.2358 0.6349,-0.54288 0.24471,-1.35479 -0.0725,-3.21202 -0.92604,-5.13111 z"
           style="fill:#9cdd05"
           inkscape:connector-curvature="0" />
        <path
           id="path5882"
           d="m 755.26218,-520.63313 c -0.14395,-0.27795 -0.0715,-0.62153 0.17119,-0.81774 0.92775,-0.74972 2.38931,-1.31024 4.1247,-1.55923 -0.0375,-0.0103 -0.0749,-0.0185 -0.11225,-0.0293 -1.64131,-0.47604 -3.05111,-1.36387 -4.1528,-2.5156 -2.09337,0.17308 -3.87468,0.78707 -4.94535,1.65228 -0.24265,0.19621 -0.31514,0.53962 -0.1712,0.81774 1.17795,2.27467 3.48946,3.8764 6.19888,4.05067 -0.43663,-0.48101 -0.81226,-1.01772 -1.11317,-1.59881 z"
           style="fill:#94c609"
           inkscape:connector-curvature="0" />
        <path
           id="path5884"
           d="m 792.63347,-540.03139 c -0.45686,-0.78501 -4.68232,-7.68442 -12.26238,-8.26071 -0.73137,-0.0382 -1.47029,-0.0281 -2.19618,0.0302 l -0.19672,0.0158 0.0807,0.1801 c 1.20039,2.68148 1.5426,5.38884 1.2177,8.27802 l 0.15029,0.007 c 2.01899,0.0922 4.05769,0.602 6.05972,1.51502 l 0.0629,0.0288 0.0608,-0.0322 c 1.85774,-0.98156 3.84623,-1.16235 6.07943,-0.55264 0.72349,0.19775 1.31812,-0.56636 0.9437,-1.20914 z"
           style="fill:#ff0c5d;fill-opacity:1"
           inkscape:connector-curvature="0" />
        <path
           id="path5886"
           d="m 783.08239,-547.79532 c -0.84995,-0.24967 -1.75355,-0.42395 -2.71147,-0.49678 -0.73137,-0.0382 -1.47029,-0.0281 -2.19618,0.0302 l -0.19673,0.0158 0.0807,0.1801 c 1.20039,2.68148 1.5426,5.38884 1.2177,8.27802 l 0.15028,0.007 c 1.5995,0.073 3.21134,0.41247 4.80758,1.00264 0.31565,-3.13713 -0.0709,-6.16374 -1.1519,-9.01676 z"
           style="fill:#d70047;fill-opacity:1"
           inkscape:connector-curvature="0" />
        <path
           id="path5888"
           d="m 777.28451,-550.12259 c -4.14526,-6.36938 -12.22604,-6.76112 -13.13375,-6.78477 -0.74372,-0.0195 -1.12791,0.86898 -0.60714,1.4086 1.60738,1.66582 2.40405,3.49683 2.43541,5.59757 l 8.5e-4,0.0689 0.0555,0.0415 c 2.33687,1.74688 4.06369,3.8656 5.13128,6.29433 0.71938,1.74807 1.09158,3.33609 1.29293,5.03994 l 0.17068,-0.0689 c 1.53575,-0.61982 3.17449,-1.02955 4.86756,-1.21753 0.63198,-0.0552 1.28196,-0.068 1.93194,-0.0382 l 0.13058,0.006 c 0.42069,-3.74342 -0.30023,-7.14925 -2.27587,-10.34739 z"
           style="fill:#ff0c5d;fill-opacity:1"
           inkscape:connector-curvature="0" />
        <path
           id="path5890"
           d="m 775.89065,-539.49194 c 0.32781,-4.13241 -0.61468,-8.02543 -2.81258,-11.58343 -1.64457,-2.52692 -3.80545,-4.26659 -6.00061,-5.46904 -1.50422,-0.30417 -2.6215,-0.35489 -2.9267,-0.36295 -0.74372,-0.0195 -1.12791,0.86898 -0.60714,1.4086 1.60738,1.66582 2.40405,3.49683 2.43541,5.59757 l 8.5e-4,0.0689 0.0555,0.0415 c 2.33687,1.74688 4.06369,3.8656 5.13128,6.29433 0.70499,1.71311 1.08815,3.3085 1.28796,4.99813 0.0581,-0.009 0.11584,-0.018 0.17411,-0.0264 l 0.002,-5.1e-4 c 1.04411,-0.42138 2.13638,-0.7432 3.26035,-0.96666 z"
           style="fill:#d70047;fill-opacity:1"
           inkscape:connector-curvature="0" />
        <path
           id="path5892"
           d="m 764.45938,-532.00682 c 2.2308,-3.03757 4.9798,-5.23067 8.17092,-6.51846 l 0.0987,-0.0398 c -0.19895,-1.68912 -0.59805,-3.32358 -1.30424,-5.03943 -3.54618,-8.06844 -12.73516,-10.03791 -13.77122,-10.23567 -0.83162,-0.15885 -1.42402,0.76617 -0.94061,1.46447 3.68996,5.33778 1.35291,10.17603 -2.50755,15.42418 l 0.0122,0.005 c -2.90511,4.5406 -1.34743,10.49374 3.17244,13.1718 0.67379,0.39927 1.40843,0.72092 2.19447,0.94883 1.15789,0.3357 2.35658,0.4231 3.56211,0.25944 l 0.17428,-0.0236 -0.0629,-0.16434 c -1.10735,-2.8878 -0.63559,-6.51932 1.20142,-9.25239 z"
           style="fill:#ff0c5d;fill-opacity:1"
           inkscape:connector-curvature="0" />
        <path
           id="path5894"
           d="m 759.33735,-534.5728 -0.0122,-0.005 c 3.91203,-5.37942 6.61408,-10.58422 2.94075,-16.15539 -0.22037,-0.33381 -0.21712,-0.75725 0.009,-1.10512 0.0905,-0.13949 0.20769,-0.24882 0.33981,-0.32696 -2.45186,-1.1531 -4.5029,-1.58784 -4.96078,-1.67524 -0.83162,-0.15885 -1.42402,0.76616 -0.94061,1.46447 3.68996,5.33777 1.35291,10.17603 -2.50755,15.42418 l 0.0122,0.005 c -2.90511,4.5406 -1.34743,10.49374 3.17244,13.17179 0.67379,0.39928 1.40843,0.72093 2.19447,0.94884 0.15919,0.0461 0.31925,0.0865 0.47998,0.12338 -2.81686,-3.19626 -3.16712,-8.04051 -0.72709,-11.86995 z"
           style="fill:#d70047;fill-opacity:1"
           inkscape:connector-curvature="0" />
        <path
           id="path5896"
           d="m 793.06427,-532.85952 c -0.67123,-0.81346 -6.81167,-7.92723 -15.59555,-7.16159 -3.7124,0.41213 -9.02276,2.10914 -13.24239,7.85801 -2.29489,3.41389 -2.82663,8.95747 0.70807,12.50708 0.57766,0.58006 1.21239,1.06982 1.88636,1.46909 4.51112,2.67274 10.485,1.19286 13.07652,-3.54429 l 0.0132,0.0106 c 2.62305,-5.8947 5.99101,-10.27028 12.32098,-9.61036 0.84584,0.0884 1.37107,-0.87618 0.83282,-1.52856 z"
           style="fill:#ff0c5d;fill-opacity:1"
           inkscape:connector-curvature="0" />
        <path
           id="path5898"
           d="m 769.10383,-529.27341 c 4.7817,-6.5147 12.90481,-9.89637 20.75956,-6.6391 -2.75414,-2.1614 -7.09116,-4.57093 -12.39449,-4.10877 -3.71241,0.41213 -9.02276,2.10913 -13.2424,7.85801 -2.29489,3.41389 -2.82663,8.95747 0.70807,12.50708 0.57767,0.58006 1.21239,1.06981 1.88636,1.46909 0.83711,0.49592 1.73505,0.85064 2.65869,1.06725 -3.16541,-3.55544 -2.59597,-8.85106 -0.37579,-12.15356 z"
           style="fill:#d70047;fill-opacity:1"
           inkscape:connector-curvature="0" />
      </g>
    </g>
  </g>
  <rect
     style="opacity:1;fill:#ffffff;fill-opacity:0.19796957;stroke:none;stroke-width:1;stroke-linecap:butt;stroke-linejoin:miter;stroke-miterlimit:4;stroke-dasharray:none;stroke-dashoffset:5.4000001;stroke-opacity:0.1372549"
     id="rect4170"
     width="50"
     height="50"
     x="0"
     y="0"
     ry="5" />
</svg>
