<?xml version="1.0" encoding="UTF-8" standalone="no"?>
<!-- Created with Inkscape (http://www.inkscape.org/) -->

<svg
   xmlns:dc="http://purl.org/dc/elements/1.1/"
   xmlns:cc="http://creativecommons.org/ns#"
   xmlns:rdf="http://www.w3.org/1999/02/22-rdf-syntax-ns#"
   xmlns:svg="http://www.w3.org/2000/svg"
   xmlns="http://www.w3.org/2000/svg"
   xmlns:sodipodi="http://sodipodi.sourceforge.net/DTD/sodipodi-0.dtd"
   xmlns:inkscape="http://www.inkscape.org/namespaces/inkscape"
   width="1920"
   height="720"
   viewBox="0 0 1920.0001 720"
   id="svg4223"
   version="1.1"
   inkscape:version="0.91 r13725"
   sodipodi:docname="tfs-present-home-page-bg-monochrome.svg"
   inkscape:export-filename="/home/karel/OneDrive/projects/tools-for-schools/graphics-and-desings/TFS-presenting-portal-design/school-in-forest.png"
   inkscape:export-xdpi="180"
   inkscape:export-ydpi="180">
  <defs
     id="defs4225">
    <clipPath
       clipPathUnits="userSpaceOnUse"
       id="clipPath40">
      <path
         d="m 25.732,43.187 748.536,0 0,240 -748.536,0 0,-240 z"
         id="path42"
         inkscape:connector-curvature="0" />
    </clipPath>
    <clipPath
       clipPathUnits="userSpaceOnUse"
       id="clipPath4900">
      <rect
         style="opacity:1;fill:#ffffff;fill-opacity:0.49019608;stroke:none;stroke-width:3;stroke-linecap:butt;stroke-linejoin:miter;stroke-miterlimit:4;stroke-dasharray:none;stroke-dashoffset:5.4000001;stroke-opacity:1"
         id="rect4902"
         width="1920"
         height="720"
         x="0"
         y="332.36249" />
    </clipPath>
  </defs>
  <sodipodi:namedview
     id="base"
     pagecolor="#ffffff"
     bordercolor="#666666"
     borderopacity="1.0"
     inkscape:pageopacity="0.0"
     inkscape:pageshadow="2"
     inkscape:zoom="0.70710678"
     inkscape:cx="952.56427"
     inkscape:cy="257.13882"
     inkscape:document-units="px"
     inkscape:current-layer="layer2"
     showgrid="false"
     borderlayer="true"
     width="1920mm"
     inkscape:snap-bbox="true"
     inkscape:bbox-paths="true"
     inkscape:bbox-nodes="true"
     inkscape:snap-bbox-edge-midpoints="true"
     inkscape:snap-page="true"
     units="px"
     inkscape:window-width="1920"
     inkscape:window-height="1056"
     inkscape:window-x="0"
     inkscape:window-y="24"
     inkscape:window-maximized="1"
     showguides="true"
     inkscape:snap-global="true"
     inkscape:guide-bbox="true" />
  <metadata
     id="metadata4228">
    <rdf:RDF>
      <cc:Work
         rdf:about="">
        <dc:format>image/svg+xml</dc:format>
        <dc:type
           rdf:resource="http://purl.org/dc/dcmitype/StillImage" />
        <dc:title></dc:title>
      </cc:Work>
    </rdf:RDF>
  </metadata>
  <g
     inkscape:label="Layer 1"
     inkscape:groupmode="layer"
     id="layer1"
     transform="translate(0,-332.36252)">
    <rect
       style="opacity:1;fill:#ffffff;fill-opacity:0.39873418;stroke:none;stroke-width:1;stroke-linecap:butt;stroke-linejoin:miter;stroke-miterlimit:4;stroke-dasharray:none;stroke-dashoffset:5.4000001;stroke-opacity:1"
       id="rect5739"
       width="266.5"
       height="127"
       x="1192.5"
       y="-362.13757" />
    <path
       style="fill:#f2e7f4;fill-opacity:1;fill-rule:evenodd;stroke:none;stroke-width:1px;stroke-linecap:butt;stroke-linejoin:miter;stroke-opacity:1"
       d="M 1920 265.94727 C 1918.0283 266.00478 1915.9401 266.21741 1913.7148 266.69531 C 1899.1737 269.81821 1894.9492 282.16602 1894.9492 282.16602 C 1894.9492 282.16602 1890.3157 275.92897 1880.9258 277.52539 C 1871.536 279.12181 1870.459 286.42188 1870.459 286.42188 C 1870.459 286.42188 1864.8433 277.48206 1850.1406 280.73633 C 1835.438 283.99059 1836.7637 296.64258 1836.7637 296.64258 C 1836.7637 296.64258 1827.0632 292.53549 1820.543 296.94141 C 1814.0228 301.34733 1815.3652 309.82031 1815.3652 309.82031 C 1815.3652 309.82031 1810.6447 303.89993 1801.7617 304 C 1800.4927 304.0143 1799.1384 304.15246 1797.7012 304.44727 C 1786.2029 306.80579 1786.3086 316.08789 1786.3086 316.08789 C 1786.3086 316.08789 1776.0799 313.17589 1770.2227 317.11719 C 1764.3655 321.0585 1764.6953 328.94531 1764.6953 328.94531 C 1764.6953 328.94531 1751.735 326.26733 1745.7695 332.9707 C 1739.8041 339.67406 1737.0879 348.16406 1737.0879 348.16406 C 1737.0879 348.16406 1730.8721 343.87639 1719.041 350.39258 C 1707.2098 356.90873 1707.6191 361.69141 1707.6191 361.69141 C 1707.6191 361.69141 1701.8313 358.40146 1689.2793 360.50586 C 1676.7272 362.61028 1673.4375 368.39648 1673.4375 368.39648 C 1673.4375 368.39648 1668.7615 366.04347 1660.084 369.19336 C 1651.4063 372.34327 1649.5996 379.37891 1649.5996 379.37891 C 1649.5996 379.37891 1642.9621 378.22603 1636.6465 380.83008 C 1630.331 383.4341 1628.9824 391.80664 1628.9824 391.80664 C 1628.9824 391.80664 1617.3003 387.98853 1612.1348 396 C 1606.9694 404.01142 1609.9453 410.63867 1609.9453 410.63867 C 1609.9453 410.63867 1596.7306 409.01455 1588.1113 412.84766 C 1579.4922 416.68074 1575.127 426 1575.127 426 C 1575.127 426 1556.2991 423.13429 1544.8887 426.51758 C 1533.4782 429.90089 1529.3477 441.95312 1529.3477 441.95312 C 1529.3477 441.95312 1520.0854 438.27224 1510.7246 441.48047 C 1501.3638 444.68872 1497.0273 454.34961 1497.0273 454.34961 C 1497.0273 454.34961 1491.3871 452.76604 1487.4336 454.82422 C 1483.4802 456.88241 1483.6055 462.37695 1483.6055 462.37695 C 1483.6055 462.37695 1477.3746 463.55636 1475.1465 468.36328 C 1474.8692 468.10629 1474.5699 467.85446 1474.2344 467.61914 C 1468.4545 463.5652 1463.7715 465.48828 1463.7715 465.48828 C 1463.7715 465.48828 1459.176 456.73175 1447.4395 456.87891 C 1435.7029 457.02608 1434.0547 466.16016 1434.0547 466.16016 C 1434.0547 466.16016 1424.56 461.37305 1418.0645 464.13867 C 1411.569 466.90429 1410.4043 474.71094 1410.4043 474.71094 C 1410.4043 474.71094 1398.1814 469.63598 1391.0586 475.09375 C 1383.9358 480.55142 1379.668 488.37695 1379.668 488.37695 C 1379.668 488.37695 1374.3713 482.9947 1361.5234 487.16211 C 1348.6754 491.32952 1348.1758 496.10352 1348.1758 496.10352 C 1348.1758 496.10352 1343.1123 491.7796 1330.3887 491.47852 C 1317.665 491.17735 1313.3418 496.24023 1313.3418 496.24023 C 1313.3418 496.24023 1309.196 493.04737 1300.0801 494.50391 C 1290.9641 495.96074 1287.8613 502.5293 1287.8613 502.5293 C 1287.8613 502.5293 1281.5605 500.14381 1274.8672 501.50977 C 1268.1738 502.87574 1265.2695 510.84375 1265.2695 510.84375 C 1265.2695 510.84375 1254.5195 504.88995 1247.9355 511.7832 C 1241.3515 518.67635 1243.0215 525.74609 1243.0215 525.74609 C 1243.0215 525.74609 1230.3516 521.65843 1221.1641 523.79688 C 1211.9765 525.93521 1205.9297 534.26367 1205.9297 534.26367 C 1205.9297 534.26367 1187.9825 527.89824 1176.1387 529.06836 C 1164.2948 530.23859 1157.9629 541.29688 1157.9629 541.29688 C 1157.9629 541.29688 1149.5635 535.93358 1139.7656 537.31836 C 1129.9676 538.70325 1123.8867 547.37305 1123.8867 547.37305 C 1123.8867 547.37305 1118.6457 544.75381 1114.375 546.0293 C 1110.1044 547.30477 1109.1914 552.72461 1109.1914 552.72461 C 1109.1914 552.72461 1102.2985 552.69051 1099.375 557.55469 C 1096.4512 562.41891 1099.9707 568.30469 1099.9707 568.30469 C 1099.9707 568.30469 1084.4644 564.95374 1078.4551 572.94141 C 1078.3861 573.03321 1078.3275 573.12794 1078.2617 573.2207 C 1077.3608 573.2237 1076.7715 573.32813 1076.7715 573.32812 C 1076.7715 573.32812 1076.5215 569.07812 1072.2715 566.07812 C 1068.0215 563.07814 1059.7715 566.32812 1059.7715 566.32812 C 1059.7715 566.32812 1049.5215 558.32812 1044.5215 558.32812 C 1039.5215 558.32812 1034.0215 561.82812 1034.0215 561.82812 C 1034.0215 561.82812 1026.0215 557.57814 1017.5215 558.07812 C 1009.0215 558.57812 1002.5215 563.32812 1002.5215 563.32812 C 1002.5215 563.32812 996.52148 557.82814 988.52148 558.32812 C 980.52148 558.82812 976.02148 564.32812 976.02148 564.32812 C 976.02148 564.32812 972.27148 560.07814 965.52148 560.32812 C 963.46533 560.40432 961.43466 560.90097 959.60156 561.55078 C 958.28854 556.00271 955.28438 548.43111 948.40039 544.89062 C 936.85993 538.95531 930.78711 539.62109 930.78711 539.62109 C 930.78711 539.62109 926.36429 531.32366 916.80469 529.03516 C 907.24521 526.74671 900.50781 532.58008 900.50781 532.58008 C 900.50781 532.58008 906.18685 525.10772 900.95117 519.00781 C 895.71548 512.908 890.00781 513.70898 890.00781 513.70898 C 890.00781 513.70898 887.40042 502.75503 874.41016 499.61328 C 861.41973 496.47158 857.0293 506.08594 857.0293 506.08594 C 857.0293 506.08594 847.90212 498.12882 839.95703 499.35156 C 832.01196 500.57421 828.5293 508.85937 828.5293 508.85938 C 828.5293 508.85938 816.47326 499.81961 807.07812 503.83594 C 797.68315 507.85211 790.77148 515.28516 790.77148 515.28516 C 790.77148 515.28516 786.444 507.85698 771.0957 508.83789 C 755.74743 509.81882 753.84961 514.94336 753.84961 514.94336 C 753.84961 514.94336 749.48247 508.74819 735.5293 504.83398 C 721.57599 500.91972 715.38086 505.28711 715.38086 505.28711 C 715.38086 505.28711 711.70401 500.59802 701.23633 499.63867 C 690.76861 498.67964 685.49805 505.05273 685.49805 505.05273 C 685.49805 505.05273 679.21853 500.6488 671.44922 500.27148 C 663.6799 499.89426 658.23047 507.86719 658.23047 507.86719 C 658.23047 507.86719 648.04646 498.27171 638.8418 504.02344 C 629.63712 509.77517 629.49023 518.04688 629.49023 518.04688 C 629.49023 518.04688 616.66048 509.9693 605.92188 509.74219 C 595.18329 509.51488 586.16797 517.00195 586.16797 517.00195 C 586.16797 517.00195 568.15834 504.92609 554.76172 502.88281 C 541.36499 500.83962 531.26758 511.25586 531.26758 511.25586 C 531.26758 511.25586 523.51991 502.98845 512.33398 501.74805 C 504.79 497.22785 493.38281 498.32812 493.38281 498.32812 C 493.38281 498.32812 498.13946 492.13717 495.47461 486.25 C 492.8101 480.36294 485.01172 479.49023 485.01172 479.49023 C 485.01172 479.49023 484.69297 473.2405 480.03125 471.23438 C 475.36949 469.22824 469.09766 471.49805 469.09766 471.49805 C 469.09766 471.49805 463.36341 460.89048 452.46484 458.03125 C 441.56638 455.17211 431.35742 460.12891 431.35742 460.12891 C 431.35742 460.12891 425.65667 446.7888 412.41602 443.90234 C 399.17542 441.016 378.03711 445.84766 378.03711 445.84766 C 378.03711 445.84766 372.29818 435.6289 362.18945 431.99805 C 352.08078 428.36708 337.21094 431.31836 337.21094 431.31836 C 337.21094 431.31836 340.03471 423.54373 333.49805 414.87891 C 326.9614 406.21397 314.01562 411.5293 314.01562 411.5293 C 314.01562 411.5293 311.78234 402.13324 304.39258 399.70508 C 297.0028 397.27693 289.5625 399.14258 289.5625 399.14258 C 289.5625 399.14258 286.92038 391.30373 276.80273 388.45312 C 266.685 385.60283 261.57422 388.66797 261.57422 388.66797 C 261.57422 388.66797 257.35382 382.37167 242.92383 381.0332 C 228.49399 379.69464 222.19727 383.91602 222.19727 383.91602 C 222.19727 383.91602 222.26197 378.45167 208.28125 372.04297 C 194.30051 365.63425 187.59961 371.02148 187.59961 371.02148 C 187.59961 371.02148 183.80423 361.60853 176.46875 354.49609 C 169.13319 347.38352 154.64063 351.50977 154.64062 351.50977 C 154.64063 351.50977 154.35437 342.52605 147.37305 338.54102 C 140.39175 334.55599 129.02148 338.71875 129.02148 338.71875 C 129.02148 338.71875 128.36376 328.17033 115.10938 326.45508 C 101.85511 324.73983 95.5 334.03711 95.5 334.03711 C 95.5 334.03711 92.419629 326.0602 82.384766 323.81641 C 72.349902 321.57261 66.191406 328.14844 66.191406 328.14844 C 66.191406 328.14844 64.675886 318.62753 55.242188 315.00781 C 45.808489 311.38809 38.398437 314.38867 38.398438 314.38867 C 38.398438 314.38867 33.21468 306.09177 22.064453 303.75391 C 10.544923 301.33862 1.6330903 303.29882 0 303.69922 L 0 618.14258 L 428.50195 621.75781 C 427.92545 627.83732 428.674 635.79229 434.61133 641.99414 C 445.71968 653.59704 467.13086 659.85352 467.13086 659.85352 L 628.11719 720 L 959.27734 720 L 979.09766 640.03711 L 1083.834 644.2793 C 1088.7127 648.81014 1094.2227 649.40234 1094.2227 649.40234 C 1094.2227 649.40234 1092.1274 666.07542 1104.0996 673.53711 C 1116.0718 680.99881 1135.6523 681.67383 1135.6523 681.67383 L 1490.0625 720 L 1568.1543 720 L 1567.2051 581.2832 L 1920 552.26953 L 1920 265.94727 z M 1476.9844 478.76367 C 1477.0354 478.83047 1477.0474 478.84647 1477.0898 478.90039 C 1476.9148 479.11827 1476.8047 479.26562 1476.8047 479.26562 C 1476.8047 479.26562 1476.8837 479.05995 1476.9844 478.76367 z "
       id="path4857"
       transform="translate(0,332.36249)" />
    <path
       style="fill:#f3d5e2;fill-opacity:1;fill-rule:evenodd;stroke:none;stroke-width:1px;stroke-linecap:butt;stroke-linejoin:miter;stroke-opacity:1"
       d="m 1905.5977,427.48828 c -1.6529,-0.0412 -3.3193,0.0246 -4.9727,0.22852 -13.2274,1.63103 -19.1992,11.08593 -19.1992,11.08593 0,0 -10.4919,-9.30178 -26.2324,-7.76562 -15.7411,1.53627 -25.7032,14.13281 -25.7032,14.13281 0,0 -14.1525,-7.21263 -30.8672,-5.51953 -16.7147,1.69313 -30.9648,12.48242 -30.9648,12.48242 0,0 -11.8129,-5.09229 -21.5527,-3.52343 -9.7399,1.5688 -27.1973,20.36914 -27.1973,20.36914 0,0 -17.09,-3.74194 -24.4277,3.43554 -7.3375,7.1775 -6.4903,15.53321 -6.4903,15.53321 0,0 -11.5931,-0.63047 -19.6074,11.65234 -2.4782,3.79828 -2.9635,8.08889 -2.4551,12.20312 -8.9697,-2.98847 -15.4902,0.83789 -15.4902,0.83789 0,0 -2.7171,-6.84404 -11.3242,-9.46484 -8.6075,-2.6207 -20.3926,7.19336 -20.3926,7.19336 0,0 -21.1736,-7.57626 -29.3848,-4.86328 -8.2113,2.71289 -15.3457,11.44531 -15.3457,11.44531 0,0 -15.4429,-2.64011 -29.1308,2.79297 -13.6878,5.43307 -21.7852,16.76172 -21.7852,16.76172 0,0 -12.8381,-5.7771 -25.7051,-0.61524 -12.8667,5.1618 -17.2714,16.63477 -17.2714,16.63477 0,0 -8.4645,-4.94409 -19.4141,-0.87109 -10.9497,4.07308 -19.0469,15.40039 -19.0469,15.40039 l 0.9785,3.42773 c -7.4722,2.85703 -12.2382,7.11719 -12.2382,7.11719 0,0 -12.7195,-9.51634 -29.4786,-10.69141 -16.7591,-1.17504 -32.6367,7.03321 -32.6367,7.03321 0,0 -10.774,-7.02775 -20.6387,-7.13868 -9.8648,-0.111 -30.2636,15.44532 -30.2636,15.44532 0,0 -16.2065,-6.59411 -24.6582,-0.76953 -8.4516,5.82463 -9.0391,14.20312 -9.0391,14.20312 0,0 -10.755,-2.45969 -20.5488,7.36914 -0.4131,-0.0528 -0.8329,-0.0941 -1.2656,-0.11133 -11.0745,-0.4394 -16.0039,0.14258 -16.0039,0.14258 0,0 0.1721,-10.85042 -11.0235,-17.16992 -11.1956,-6.3195 -19.9609,-1.14649 -19.9609,-1.14649 0,0 -2.7171,-6.84404 -11.3242,-9.46484 -8.6075,-2.62073 -20.3926,7.19336 -20.3926,7.19336 0,0 -21.1736,-7.57628 -29.3848,-4.86328 -8.2113,2.7129 -15.3437,11.44531 -15.3437,11.44531 0,0 -0.94,-0.1568 -2.5118,-0.31445 -1.2868,-0.52617 -2.6813,-0.98641 -4.1992,-1.35352 -7.7806,-1.88172 -12.9425,0.11038 -16.1504,2.53125 -2.0917,0.48957 -4.2005,1.10768 -6.2715,1.92969 -0.517,0.20527 -1.0106,0.43313 -1.5117,0.6543 -3.9227,-2.67252 -10.6294,-6.37239 -16.7929,-5.42383 -9.3917,1.44527 -13.5078,11.24023 -13.5078,11.24023 0,0 -14.2516,-10.68513 -25.3575,-5.9375 -11.1057,4.74744 -19.2754,13.53321 -19.2754,13.53321 0,0 -5.1168,-8.78257 -23.2597,-7.62305 -18.14302,1.15954 -20.38479,7.21875 -20.38479,7.21875 0,0 -5.16246,-7.3223 -21.65625,-11.94922 -16.494,-4.62697 -23.81836,0.53516 -23.81836,0.53516 0,0 -4.3432,-5.54371 -16.7168,-6.67774 -12.3737,-1.13365 -18.60742,6.40039 -18.60742,6.40039 0,0 -7.42157,-5.20632 -16.60547,-5.65234 -9.184,-0.4459 -15.625,8.98047 -15.625,8.98047 0,0 -12.03922,-11.34393 -22.91992,-4.54492 -10.88066,6.79901 -11.05469,16.57617 -11.05469,16.57617 0,0 -15.16545,-9.54795 -27.85938,-9.81641 -12.69386,-0.2687 -23.3496,8.58203 -23.3496,8.58203 0,0 -1.86347,-1.22667 -4.71485,-2.94726 -0.39865,-3.31669 -1.59155,-6.5614 -4.15234,-9.16016 -9.04438,-9.17847 -18.91797,-6.61133 -18.91797,-6.61133 0,0 -0.72789,-7.34581 -8.29883,-12.24609 -7.57097,-4.90028 -21.63672,1.30469 -21.63672,1.30469 0,0 -18.31169,-13.14156 -26.97265,-12.79297 -8.66096,0.34858 -17.94336,6.79297 -17.94336,6.79297 0,0 -14.15497,-6.80244 -28.84375,-5.34375 -14.68879,1.45865 -25.61719,10.13867 -25.61719,10.13867 0,0 -10.77695,-9.10937 -24.59961,-7.68555 -13.82268,1.42384 -21.23242,11.26563 -21.23242,11.26563 0,0 -6.79195,-7.10088 -18.4668,-6.19727 -10.2912,0.79654 -19.97945,7.62043 -22.13672,9.23047 -0.7238,-1.35127 -6.27202,-11.03609 -18.66992,-14.68945 -13.32913,-3.92778 -25.58984,3.05664 -25.58984,3.05664 0,0 -9.1558,-10.53193 -23.33008,-14.65235 -14.17426,-4.12044 -29.33399,-0.0195 -29.33399,-0.0195 0,0 -7.9473,-8.03622 -16.39843,-9.96289 -8.45114,-1.92668 -28.85743,7.64649 -28.85743,7.64649 10e-6,0 -12.69179,-8.67324 -21.03124,-5.24024 -1.61789,0.66602 -2.99391,1.47134 -4.16993,2.33399 -11.22445,-3.64576 -21.35547,-2.06641 -21.35547,-2.06641 0,0 -7.19234,-6.88191 -19.23828,-10.27734 -12.04608,-3.39546 -17.82812,2.69531 -17.82812,2.69531 -1.98666,-4.51257 -3.32271,-9.07589 -18.83399,-16.90039 -15.51133,-7.82439 -24.26171,-1.69336 -24.26171,-1.69336 0,0 -8.93734,-3.03571 -15.70899,2.23437 -1.89999,-6.27448 -17.69336,-11.72656 -17.69336,-11.72656 0,0 0.23015,-13.67597 -10.14648,-18.1582 -10.37701,-4.48215 -20.78907,0.74609 -20.78907,0.74609 0,0 9.65088,-16.74525 1.31641,-26.86718 -8.33449,-10.12189 -18.57226,-8.41602 -18.57227,-8.41602 0,0 -0.074,-7.50966 -7.30273,-13.16211 -7.22902,-5.65247 -22.04492,-0.63867 -22.04492,-0.63867 0,0 -17.36858,-14.98051 -26.17774,-15.41211 -8.80927,-0.43173 -18.80078,5.25976 -18.80078,5.25976 0,0 -13.72911,-8.17827 -28.748044,-8.03125 -15.01877,0.14705 -26.880859,7.95508 -26.880859,7.95508 0,0 -10.096115,-10.20777 -24.234375,-10.01758 -14.137932,0.19023 -22.541016,9.49219 -22.541016,9.49219 0,0 -6.240262,-7.81276 -18.1542966,-7.95508 -0.690524,-0.008 -1.38049059,0.0165 -2.0683594,0.0586 l 0,140.89648 302.10156,36.72656 c -0.45732,5.85714 5.39844,14.33399 5.39844,14.33399 0,0 -21.5884,-6.69944 -38.3418,-3.40625 -16.75337,3.29276 -20.45121,17.56263 -23.52734,21.30664 L 227.19531,657.63086 562.96289,720 l 1.17383,0 1.55859,-8.40234 29.95313,0.01 c 3.17432,4.56623 7.04675,7.14527 9.34375,8.39258 l 928.54301,0 -1.3204,-44.64062 276.625,-69.77735 111.1602,-22.55469 0,-152.89648 c -4.0134,-1.28871 -9.1247,-2.50922 -14.4023,-2.64063 z"
       transform="translate(0,332.36249)"
       id="path4863"
       inkscape:connector-curvature="0"
       sodipodi:nodetypes="cccscscsccccccccccscscscccscscsccccsccccccscccccscscscccccsccccscscscscscscscscscsccscscccccscccccscsccccccccccccccccccccc" />
    <path
       style="fill:#ff8094;fill-opacity:1;fill-rule:evenodd;stroke:none;stroke-width:1px;stroke-linecap:butt;stroke-linejoin:miter;stroke-opacity:1"
       d="M 1333.0293 609.69141 C 1331.2432 609.6751 1329.2726 609.96969 1327.1074 610.69141 C 1313.2504 615.31031 1312.9199 624.54883 1312.9199 624.54883 C 1312.9199 624.54883 1298.7344 616.30019 1285.8672 623.55859 C 1273.0001 630.81699 1274.3184 640.38477 1274.3184 640.38477 C 1274.3184 640.38477 1264.0903 642.03591 1260.791 647.97461 C 1257.4918 653.91321 1260.1328 660.51172 1260.1328 660.51172 C 1260.1328 660.51172 1250.8932 659.5209 1243.9648 666.7793 C 1237.0363 674.0377 1243.6348 685.25586 1243.6348 685.25586 C 1243.6348 685.25586 1228.7895 687.89604 1225.4902 699.77344 C 1222.7628 709.59199 1227.6513 717.51642 1229.4453 720 L 1436.0137 720 C 1438.0794 715.45676 1439.2552 709.67942 1436.9727 703.40234 C 1431.6938 688.88554 1415.5273 686.57617 1415.5273 686.57617 C 1415.5273 686.57617 1425.4256 663.81074 1407.9395 651.27344 C 1390.4533 638.73624 1375.9355 645.66406 1375.9355 645.66406 C 1375.9355 645.66406 1379.3157 639.28188 1373.377 633.14648 C 1367.4383 627.01108 1361.4023 628.93555 1361.4023 628.93555 C 1361.4023 628.93555 1362.0795 624.05404 1356.4707 620.58984 C 1350.8619 617.12554 1346.9023 618.93945 1346.9023 618.93945 C 1346.9023 618.93945 1342.674 609.77946 1333.0293 609.69141 z "
       transform="translate(0,332.36249)"
       id="path4148" />
    <path
       style="fill:#ff8196;fill-opacity:1;fill-rule:evenodd;stroke:none;stroke-width:1px;stroke-linecap:butt;stroke-linejoin:miter;stroke-opacity:1"
       d="M 58.029297 469.69141 C 56.243236 469.6751 54.272562 469.96969 52.107422 470.69141 C 38.250423 475.31031 37.919922 484.54883 37.919922 484.54883 C 37.919922 484.54883 23.734387 476.30019 10.867188 483.55859 C 3.905912 487.48549 1.1119358 492.07852 0 495.47656 L 0 662.26172 L 132.2793 659.08008 C 132.2793 659.08008 161.31325 653.80168 167.25195 630.04688 C 173.19065 606.29208 154.05469 589.79688 154.05469 589.79688 C 154.05469 589.79688 167.25146 577.91914 161.97266 563.40234 C 156.69376 548.88554 140.52734 546.57617 140.52734 546.57617 C 140.52734 546.57617 150.42555 523.81074 132.93945 511.27344 C 115.45325 498.73624 100.93555 505.66406 100.93555 505.66406 C 100.93555 505.66406 104.31565 499.28188 98.376953 493.14648 C 92.438253 487.01108 86.402344 488.93555 86.402344 488.93555 C 86.402344 488.93555 87.079503 484.05404 81.470703 480.58984 C 75.861903 477.12554 71.902344 478.93945 71.902344 478.93945 C 71.902344 478.93945 67.674025 469.77946 58.029297 469.69141 z "
       transform="translate(0,332.36249)"
       id="path4181" />
    <path
       style="fill:#ff8888;fill-opacity:1;fill-rule:evenodd;stroke:none;stroke-width:1px;stroke-linecap:butt;stroke-linejoin:miter;stroke-opacity:1"
       d="M 451.32617 550.12695 C 437.31267 550.3264 428.2168 562.67969 428.2168 562.67969 C 428.2168 562.67969 423.98311 553.80762 408.50781 555.16992 C 393.03271 556.53212 392.6875 571.59961 392.6875 571.59961 C 392.6875 571.59961 388.05763 571.50652 384.05273 577.26172 C 380.04773 583.01692 382.77344 587.49219 382.77344 587.49219 C 382.77344 587.49219 376.07235 588.17098 372.87695 596.67188 C 369.68155 605.17277 375.67969 609.96875 375.67969 609.96875 C 375.67969 609.96875 358.58398 609.35718 346.83398 628.99414 C 335.08399 648.63134 354.38086 666.65039 354.38086 666.65039 C 354.38086 666.65039 339.58608 675.75004 340.58398 692.14844 C 341.58188 708.54704 359.48828 714.54492 359.48828 714.54492 C 359.48828 714.54492 358.50667 716.61683 357.5 720 L 540.47461 720 L 599.36523 696.10156 C 599.36523 696.10156 616.86336 683.53431 610.10156 666.19531 C 603.33966 648.85601 584.00195 651.89453 584.00195 651.89453 C 584.00195 651.89453 585.95421 636.12755 575.81641 625.99219 C 565.67851 615.85659 549.81055 621.59766 549.81055 621.59766 C 549.81055 621.59766 553.62205 609.23142 545.37305 599.04102 C 537.12395 588.85052 521.52148 592.56445 521.52148 592.56445 C 521.52148 592.56445 523.2085 578.82483 513.375 574.67773 C 503.5416 570.53053 494.94922 575.4082 494.94922 575.4082 C 494.94922 575.4082 494.72784 567.85353 488.99414 563.45703 C 483.26024 559.06043 472.58398 561.7832 472.58398 561.7832 C 472.58398 561.7832 469.81861 551.88981 454.19141 550.25781 C 453.21469 550.15581 452.26041 550.11366 451.32617 550.12695 z "
       transform="translate(0,332.36249)"
       id="path4183" />
    <path
       style="fill:#f6a8b5;fill-opacity:1;fill-rule:evenodd;stroke:none;stroke-width:1px;stroke-linecap:butt;stroke-linejoin:miter;stroke-opacity:1"
       d="M 1917.959 528.53125 C 1916.965 528.54155 1915.969 528.58735 1914.9766 528.67578 C 1899.0983 530.09022 1891.5781 541.15234 1891.5781 541.15234 C 1891.5781 541.15234 1879.4123 529.60911 1860.5332 530.80859 C 1841.6537 532.00804 1829.2344 546.66211 1829.2344 546.66211 C 1829.2344 546.66211 1812.6065 537.46685 1792.5566 538.81445 C 1772.5064 540.16202 1755.0352 552.48242 1755.0352 552.48242 C 1755.0352 552.48242 1743.5072 543.88443 1722.873 549.43164 C 1702.2387 554.97885 1696.0781 570.64844 1696.0781 570.64844 C 1696.0781 570.64844 1683.4877 566.45413 1672.0391 573.14648 C 1660.5905 579.83883 1658.3477 592.07422 1658.3477 592.07422 C 1658.3477 592.07422 1648.903 592.62607 1639.3848 600.88086 C 1629.8667 609.13565 1632.0391 625.48828 1632.0391 625.48828 C 1632.0391 625.48828 1627.7875 623.69169 1625.3887 623.02148 C 1607.1689 617.93106 1590.6152 627.67383 1590.6152 627.67383 C 1590.6152 627.67383 1577.9478 613.51206 1558.5742 608.17578 C 1539.2002 602.83937 1518.6445 608.71289 1518.6445 608.71289 C 1518.6445 608.71289 1509.7036 595.54311 1490.4727 593.61328 C 1471.2419 591.68346 1456.9922 606.42969 1456.9922 606.42969 C 1456.9922 606.42969 1447.3288 597.87527 1434.0098 599.96875 C 1420.6909 602.06222 1414.3086 614.22266 1414.3086 614.22266 C 1414.3086 614.22266 1401.298 610.719 1389.791 620.77734 C 1378.284 630.83569 1379.9004 653.94336 1379.9004 653.94336 C 1379.9004 653.94336 1368.2278 643.61232 1353.2715 645.85352 C 1338.3149 648.09502 1333.9258 665.86133 1333.9258 665.86133 C 1333.9258 665.86133 1325.9942 666.92636 1320.6797 674.83203 C 1315.3652 682.73773 1319.5273 695.73242 1319.5273 695.73242 C 1319.5273 695.73242 1303.1577 679.73838 1285.4258 683.48438 C 1267.6939 687.23036 1261.7052 696.89882 1253.7559 706.73242 C 1248.8422 705.18182 1243.4079 704.07485 1237.5508 703.87695 C 1216.7271 703.17315 1200.5273 710.94922 1200.5273 710.94922 C 1200.5273 710.94922 1202.4933 699.41734 1197.9336 692.64844 C 1193.374 685.87964 1186.3359 684.2168 1186.3359 684.2168 C 1186.3359 684.2168 1184.2925 671.07231 1167.5586 668.94531 C 1154.1104 667.236 1145.3086 680.23047 1145.3086 680.23047 C 1145.3086 680.23047 1141.9035 662.75998 1130.209 655.32227 C 1118.5145 647.88456 1108.7559 650.51758 1108.7559 650.51758 C 1108.7559 650.51758 1105.1353 641.66984 1090.8848 640.13086 C 1076.6343 638.59188 1069.8633 650.27734 1069.8633 650.27734 C 1069.8633 650.27734 1055.5221 639.62902 1037.7617 643.86133 C 1020.0012 648.09364 1015.793 661.88281 1015.793 661.88281 C 1015.793 661.88281 996.73362 659.89651 980.46094 667.62109 C 964.18822 675.34568 955.20898 689.81836 955.20898 689.81836 C 955.20898 689.81836 939.07931 683.79309 923.78711 691.12109 C 913.59546 696.00489 908.23296 703.99196 905.77734 708.78906 C 900.99031 705.70636 895.22811 702.79441 889.08398 701.44141 C 872.98836 697.89711 862.13281 706.46289 862.13281 706.46289 C 862.13281 706.46289 853.7277 691.29722 834.74023 686.60742 C 815.75279 681.91772 798.94922 692.50391 798.94922 692.50391 C 798.94922 692.50391 785.41635 678.26706 765.22852 673.35938 C 745.04068 668.45158 723.98242 675.16406 723.98242 675.16406 C 723.98242 675.16406 713.36415 665.42297 693.84766 663.94922 C 674.33117 662.47547 660.20117 674.73633 660.20117 674.73633 C 660.20117 674.73633 647.82364 665.54588 634.63281 669.21484 C 621.44198 672.88384 616.33594 684.12695 616.33594 684.12695 C 616.33594 684.12695 602.13666 681.35317 591.76953 688.13867 C 581.40241 694.92427 580.11884 706.74274 579.98633 709.21094 C 563.00183 706.96284 546.96094 708.82813 546.96094 708.82812 C 546.96094 708.82812 560.73388 701.50661 558.80859 688.31641 C 556.8833 675.12631 543.86719 675.58789 543.86719 675.58789 C 543.86719 675.58789 540.04723 661.98036 526.90234 655.98438 C 513.75744 649.98838 500.94531 656.24414 500.94531 656.24414 C 500.94531 656.24414 508.62251 637.04985 498.89258 623.95703 C 488.52072 610.0004 473.98242 611.67578 473.98242 611.67578 C 473.98242 611.67578 472.91222 600.5275 458.80664 595.15234 C 444.70107 589.77718 433.58789 596.91211 433.58789 596.91211 C 433.58789 596.91211 425.13988 585.27454 405.58594 582.82812 C 386.03201 580.38172 372.97461 588.81641 372.97461 588.81641 C 372.97461 588.81641 353.87422 579.63513 334.05273 581.60352 C 314.23125 583.57187 299.48437 595.28516 299.48438 595.28516 C 299.48438 595.28516 290.25562 585.45936 273.80273 584.65039 C 257.34986 583.84143 249.36328 590.38867 249.36328 590.38867 C 249.36328 590.38867 241.2695 579.97689 227.37305 577.61914 C 213.4766 575.26139 201.34375 581.2832 201.34375 581.2832 C 201.34375 581.2832 193.9399 566.39793 175.95312 561.09766 C 157.96641 555.79739 141.42187 565.22266 141.42188 565.22266 C 141.42187 565.22266 129.0647 551.00749 109.9375 545.44727 C 90.810305 539.88697 70.353516 545.42188 70.353516 545.42188 C 70.353516 545.42188 62.378837 534.32843 40.599609 533.10352 C 18.820382 531.87861 9.2832031 542.29492 9.2832031 542.29492 C 9.2832031 542.29492 5.3342539 539.61302 0 537.32422 L 0 720 L 1920 720 L 1920 528.57617 C 1919.3207 528.55037 1918.6409 528.52415 1917.959 528.53125 z "
       id="path6780"
       transform="translate(0,332.36249)" />
    <path
       style="fill:#ff8196;fill-opacity:1;fill-rule:evenodd;stroke:none;stroke-width:1px;stroke-linecap:butt;stroke-linejoin:miter;stroke-opacity:1"
       d="M 607.94531 609.69141 C 598.30056 609.77949 594.07227 618.93945 594.07227 618.93945 C 594.07227 618.93945 590.11462 617.1256 584.50586 620.58984 C 578.89709 624.05407 579.57227 628.93555 579.57227 628.93555 C 579.57227 628.93555 573.5383 627.01108 567.59961 633.14648 C 561.66091 639.28186 565.03906 645.66406 565.03906 645.66406 C 565.03906 645.66406 550.52327 638.7362 533.03711 651.27344 C 515.55096 663.81068 525.44727 686.57617 525.44727 686.57617 C 525.44727 686.57617 509.28275 688.88554 504.00391 703.40234 C 501.72134 709.67946 502.8972 715.45675 504.96289 720 L 711.53125 720 C 713.32587 717.51516 718.2133 709.59057 715.48633 699.77344 C 712.18705 687.89604 697.33984 685.25586 697.33984 685.25586 C 697.33984 685.25586 703.93825 674.03766 697.00977 666.7793 C 690.0813 659.5209 680.84375 660.51172 680.84375 660.51172 C 680.84375 660.51172 683.48286 653.9133 680.18359 647.97461 C 676.88431 642.03592 666.65625 640.38477 666.65625 640.38477 C 666.65625 640.38477 667.97653 630.81699 655.10938 623.55859 C 642.24221 616.30019 628.05469 624.54883 628.05469 624.54883 C 628.05469 624.54883 627.72609 615.3104 613.86914 610.69141 C 611.70399 609.96969 609.73138 609.67509 607.94531 609.69141 z "
       transform="translate(0,332.36249)"
       id="path4146" />
    <path
       style="fill:#ff8094;fill-opacity:1;fill-rule:evenodd;stroke:none;stroke-width:1px;stroke-linecap:butt;stroke-linejoin:miter;stroke-opacity:1"
       d="M 1390.332 676.91602 C 1379.0261 676.96152 1374.2051 689.0293 1374.2051 689.0293 C 1374.2051 689.0293 1358.0349 680.05813 1343.2207 690.14453 C 1330.7427 698.64039 1331.4123 715.02788 1331.9336 720 L 1477.5449 720 C 1474.567 717.70909 1471.1211 717.42188 1471.1211 717.42188 C 1471.1211 717.42188 1471.3662 714.24192 1467.5684 711.26562 C 1463.7706 708.28933 1460.5898 709.98828 1460.5898 709.98828 C 1460.5898 709.98828 1460.3839 705.35748 1454.668 702.83008 C 1448.9521 700.30268 1445.4238 704.23828 1445.4238 704.23828 C 1445.4238 704.23828 1446.5118 692.51363 1433.4785 683.67383 C 1420.4452 674.83403 1407.3125 687.39062 1407.3125 687.39062 C 1407.3125 687.39062 1401.6378 676.87102 1390.332 676.91602 z "
       transform="translate(0,332.36249)"
       id="path4179" />
    <path
       style="fill:#ff8989;fill-opacity:1;fill-rule:evenodd;stroke:none;stroke-width:1px;stroke-linecap:butt;stroke-linejoin:miter;stroke-opacity:1"
       d="M 1620.8652 598.12695 C 1619.931 598.11366 1618.9748 598.15581 1617.998 598.25781 C 1602.3708 599.88982 1599.6074 609.7832 1599.6074 609.7832 C 1599.6074 609.7832 1588.9292 607.06046 1583.1953 611.45703 C 1577.4616 615.85358 1577.2422 623.4082 1577.2422 623.4082 C 1577.2422 623.4082 1568.6498 618.53057 1558.8164 622.67773 C 1548.9829 626.82481 1550.6699 640.56445 1550.6699 640.56445 C 1550.6699 640.56445 1535.0675 636.85056 1526.8184 647.04102 C 1518.5694 657.23147 1522.3809 669.59766 1522.3809 669.59766 C 1522.3809 669.59766 1506.5109 663.85657 1496.373 673.99219 C 1486.2352 684.12759 1488.1895 699.89453 1488.1895 699.89453 C 1488.1895 699.89453 1468.8517 696.85601 1462.0898 714.19531 C 1461.3084 716.19905 1460.862 718.13572 1460.6641 720 L 1723.9863 720 C 1720.7916 716.49708 1717.8105 714.65039 1717.8105 714.65039 C 1717.8105 714.65039 1737.1074 696.63134 1725.3574 676.99414 C 1713.6074 657.35708 1696.5117 657.96875 1696.5117 657.96875 C 1696.5117 657.96875 1702.5099 653.17276 1699.3145 644.67188 C 1696.1191 636.17099 1689.418 635.49219 1689.418 635.49219 C 1689.418 635.49219 1692.1437 631.01683 1688.1387 625.26172 C 1684.1338 619.50651 1679.5039 619.59961 1679.5039 619.59961 C 1679.5039 619.59961 1679.1587 604.53213 1663.6836 603.16992 C 1648.2083 601.80757 1643.9746 610.67969 1643.9746 610.67969 C 1643.9746 610.67969 1634.8787 598.32641 1620.8652 598.12695 z "
       transform="translate(0,332.36249)"
       id="path4177" />
    <path
       style="fill:#ff8094;fill-opacity:1;fill-rule:evenodd;stroke:none;stroke-width:1px;stroke-linecap:butt;stroke-linejoin:miter;stroke-opacity:1"
       d="M 1834.3242 567.91602 C 1832.1684 567.89633 1829.7872 568.25192 1827.1738 569.12305 C 1810.4482 574.69813 1810.0508 585.84961 1810.0508 585.84961 C 1810.0508 585.84961 1792.9274 575.8933 1777.3965 584.6543 C 1761.8657 593.41529 1763.457 604.96484 1763.457 604.96484 C 1763.457 604.96484 1751.1132 606.95496 1747.1309 614.12305 C 1743.1488 621.29103 1746.334 629.25586 1746.334 629.25586 C 1746.334 629.25586 1735.1829 628.06127 1726.8203 636.82227 C 1718.4575 645.58326 1726.4219 659.12305 1726.4219 659.12305 C 1726.4219 659.12305 1708.5018 662.30832 1704.5195 676.64453 C 1700.5372 690.98073 1710.0957 702.13086 1710.0957 702.13086 C 1710.0957 702.13086 1690.9812 703.32629 1685.0078 718.45898 C 1684.8052 718.97228 1684.6219 719.48641 1684.4531 720 L 1920 720 L 1920 615.06445 C 1901.0754 604.21119 1886.1113 611.33594 1886.1113 611.33594 C 1886.1113 611.33594 1890.1915 603.63208 1883.0234 596.22656 C 1875.8553 588.82104 1868.5703 591.14258 1868.5703 591.14258 C 1868.5703 591.14258 1869.3871 585.25165 1862.6172 581.07031 C 1855.8473 576.88885 1851.0684 579.08008 1851.0684 579.08008 C 1851.0684 579.08008 1845.9656 568.0223 1834.3242 567.91602 z "
       id="path4175"
       transform="translate(0,332.36249)" />
    <path
       style="fill:#ff8888;fill-opacity:1;fill-rule:evenodd;stroke:none;stroke-width:1px;stroke-linecap:butt;stroke-linejoin:miter;stroke-opacity:1"
       d="M 175.06641 545.12695 C 173.97368 545.1114 172.85531 545.15999 171.71289 545.2793 C 153.4345 547.18817 150.20117 558.75977 150.20117 558.75977 C 150.20117 558.75977 137.71253 555.57626 131.00586 560.71875 C 124.29943 565.86113 124.04297 574.69922 124.04297 574.69922 C 124.04297 574.69922 113.98994 568.99297 102.48828 573.84375 C 90.9865 578.69441 92.960938 594.76367 92.960938 594.76367 C 92.960938 594.76367 74.711079 590.42049 65.0625 602.33984 C 55.414041 614.25906 59.873047 628.72266 59.873047 628.72266 C 59.873047 628.72266 41.310934 622.00815 29.453125 633.86328 C 17.595426 645.71815 19.880859 664.16016 19.880859 664.16016 C 19.880859 664.16016 9.2379447 662.48911 0 667.98633 L 0 714.31055 C 1.1551516 715.32187 1.9101562 715.86719 1.9101562 715.86719 L 12.09375 720 L 302.46875 720 C 303.61344 717.41376 304.39498 714.50853 304.59375 711.24219 C 305.76095 692.06169 288.45703 681.41797 288.45703 681.41797 C 288.45703 681.41797 311.02858 660.34366 297.28516 637.375 C 283.54175 614.40659 263.54492 615.12109 263.54492 615.12109 C 263.54492 615.12109 270.56173 609.51341 266.82422 599.57031 C 263.08672 589.62722 255.24805 588.83203 255.24805 588.83203 C 255.24805 588.83203 258.43641 583.59682 253.75195 576.86523 C 249.06761 570.13365 243.65234 570.24414 243.65234 570.24414 C 243.65234 570.24414 243.24893 552.61869 225.14844 551.02539 C 207.04772 549.43197 202.0957 559.81055 202.0957 559.81055 C 202.0957 559.81055 191.45733 545.36024 175.06641 545.12695 z "
       transform="translate(0,332.36249)"
       id="path4185" />
    <path
       style="fill:#ff8888;fill-opacity:1;fill-rule:evenodd;stroke:none;stroke-width:1px;stroke-linecap:butt;stroke-linejoin:miter;stroke-opacity:1"
       d="M 397.09766 627.15234 C 396.00493 627.13679 394.88656 627.18343 393.74414 627.30273 C 375.46575 629.2116 372.23242 640.78516 372.23242 640.78516 C 372.23242 640.78516 359.74378 637.5997 353.03711 642.74219 C 346.33068 647.88457 346.07422 656.72266 346.07422 656.72266 C 346.07422 656.72266 336.02314 651.01641 324.52148 655.86719 C 313.01971 660.71785 314.99219 676.78711 314.99219 676.78711 C 314.99219 676.78711 296.74233 672.44584 287.09375 684.36523 C 277.44529 696.28443 281.9043 710.74805 281.9043 710.74805 C 281.9043 710.74805 263.34414 704.03162 251.48633 715.88672 C 250.18451 717.18823 249.06075 718.57281 248.07812 720 L 519.64844 720 C 519.53366 719.79924 519.43671 719.5995 519.31641 719.39844 C 505.573 696.43004 485.57617 697.14648 485.57617 697.14648 C 485.57617 697.14648 492.59298 691.53685 488.85547 681.59375 C 485.11797 671.65065 477.2793 670.85547 477.2793 670.85547 C 477.2793 670.85547 480.46766 665.62221 475.7832 658.89062 C 471.09886 652.15905 465.68359 652.26758 465.68359 652.26758 C 465.68359 652.26758 465.28018 634.64408 447.17969 633.05078 C 429.07897 631.45736 424.12695 641.83398 424.12695 641.83398 C 424.12695 641.83398 413.48858 627.38563 397.09766 627.15234 z "
       transform="translate(0,332.36249)"
       id="path4187" />
    <g
       inkscape:groupmode="layer"
       id="layer2"
       inkscape:label="top">
      <path
         style="opacity:1;fill:#ffffff;fill-opacity:0.60784316;stroke:none;stroke-width:1;stroke-linecap:butt;stroke-linejoin:miter;stroke-miterlimit:4;stroke-dasharray:none;stroke-dashoffset:5.4000001;stroke-opacity:1"
         d="m 1920,235.65039 c -50.6252,11.77294 -99.4271,28.9328 -122.5352,36.04297 -36.7695,11.31371 -246.0719,107.48152 -267.2851,115.9668 -21.2132,8.48528 -159.8072,56.56776 -210.7188,62.22461 -50.9117,5.65685 -306.8832,18.38476 -357.79488,18.38476 -50.91169,0 -309.71348,-39.59765 -340.82618,-39.59765 -31.11267,0 -258.80032,-53.73979 -281.42773,-57.98243 C 316.78469,366.44681 267.28548,331.09105 227.6875,319.77734 201.16736,312.20016 78.731593,288.35762 0,273.28516 L 0,720 l 1920,0 0,-484.34961 z"
         transform="translate(0,332.36249)"
         id="rect6709"
         inkscape:connector-curvature="0" />
    </g>
  </g>
</svg>
