<?xml version="1.0" encoding="UTF-8" standalone="no"?>
<!-- Created with Inkscape (http://www.inkscape.org/) -->

<svg
   xmlns:dc="http://purl.org/dc/elements/1.1/"
   xmlns:cc="http://creativecommons.org/ns#"
   xmlns:rdf="http://www.w3.org/1999/02/22-rdf-syntax-ns#"
   xmlns:svg="http://www.w3.org/2000/svg"
   xmlns="http://www.w3.org/2000/svg"
   xmlns:sodipodi="http://sodipodi.sourceforge.net/DTD/sodipodi-0.dtd"
   xmlns:inkscape="http://www.inkscape.org/namespaces/inkscape"
   width="1920"
   height="420"
   viewBox="0 0 1920.0001 420"
   id="svg4223"
   version="1.1"
   inkscape:version="0.91 r13725"
   sodipodi:docname="tfs-present-home-page-bg.svg"
   inkscape:export-filename="/home/karel/OneDrive/projects/tools-for-schools/graphics-and-desings/TFS-presenting-portal-design/school-in-forest.png"
   inkscape:export-xdpi="180"
   inkscape:export-ydpi="180">
  <defs
     id="defs4225">
    <clipPath
       clipPathUnits="userSpaceOnUse"
       id="clipPath40">
      <path
         d="m 25.732,43.187 748.536,0 0,240 -748.536,0 0,-240 z"
         id="path42"
         inkscape:connector-curvature="0" />
    </clipPath>
    <clipPath
       clipPathUnits="userSpaceOnUse"
       id="clipPath4900">
      <rect
         style="opacity:1;fill:#ffffff;fill-opacity:0.49019608;stroke:none;stroke-width:3;stroke-linecap:butt;stroke-linejoin:miter;stroke-miterlimit:4;stroke-dasharray:none;stroke-dashoffset:5.4000001;stroke-opacity:1"
         id="rect4902"
         width="1920"
         height="720"
         x="0"
         y="332.36249" />
    </clipPath>
  </defs>
  <sodipodi:namedview
     id="base"
     pagecolor="#ffffff"
     bordercolor="#666666"
     borderopacity="1.0"
     inkscape:pageopacity="0.0"
     inkscape:pageshadow="2"
     inkscape:zoom="0.5"
     inkscape:cx="747.74838"
     inkscape:cy="249.09759"
     inkscape:document-units="px"
     inkscape:current-layer="g4877"
     showgrid="false"
     borderlayer="true"
     width="1920mm"
     inkscape:snap-bbox="true"
     inkscape:bbox-paths="true"
     inkscape:bbox-nodes="true"
     inkscape:snap-bbox-edge-midpoints="true"
     inkscape:snap-page="true"
     units="px"
     inkscape:window-width="1920"
     inkscape:window-height="1056"
     inkscape:window-x="0"
     inkscape:window-y="24"
     inkscape:window-maximized="1"
     showguides="true"
     inkscape:snap-global="true"
     inkscape:guide-bbox="true" />
  <metadata
     id="metadata4228">
    <rdf:RDF>
      <cc:Work
         rdf:about="">
        <dc:format>image/svg+xml</dc:format>
        <dc:type
           rdf:resource="http://purl.org/dc/dcmitype/StillImage" />
        <dc:title></dc:title>
      </cc:Work>
    </rdf:RDF>
  </metadata>
  <g
     inkscape:label="Layer 1"
     inkscape:groupmode="layer"
     id="layer1"
     transform="translate(0,-632.36254)">
    <rect
       style="opacity:1;fill:#ffffff;fill-opacity:0.39873418;stroke:none;stroke-width:1;stroke-linecap:butt;stroke-linejoin:miter;stroke-miterlimit:4;stroke-dasharray:none;stroke-dashoffset:5.4000001;stroke-opacity:1"
       id="rect5739"
       width="266.5"
       height="127"
       x="1192.5"
       y="-362.13757" />
    <g
       id="g4877"
       clip-path="url(#clipPath4900)">
      <rect
         y="324.04251"
         x="-4.2426405"
         height="618.01135"
         width="1940.301"
         id="rect6817"
         style="opacity:1;fill:#ffffff;fill-opacity:1;stroke:none;stroke-width:1;stroke-linecap:butt;stroke-linejoin:miter;stroke-miterlimit:4;stroke-dasharray:none;stroke-dashoffset:5.4000001;stroke-opacity:1" />
      <path
         style="fill:#f4d2d2;fill-opacity:1;fill-rule:evenodd;stroke:none;stroke-width:1px;stroke-linecap:butt;stroke-linejoin:miter;stroke-opacity:1"
         d="M 1801.7617 4 C 1800.4927 4.0142963 1799.1384 4.1524569 1797.7012 4.4472656 C 1786.2029 6.8057855 1786.3086 16.087891 1786.3086 16.087891 C 1786.3086 16.087891 1776.0799 13.175888 1770.2227 17.117188 C 1764.3655 21.058497 1764.6953 28.945312 1764.6953 28.945312 C 1764.6953 28.945312 1751.735 26.267334 1745.7695 32.970703 C 1739.8041 39.674063 1737.0879 48.164062 1737.0879 48.164062 C 1737.0879 48.164062 1730.8721 43.876389 1719.041 50.392578 C 1707.2098 56.908728 1707.6191 61.691406 1707.6191 61.691406 C 1707.6191 61.691406 1701.8313 58.40146 1689.2793 60.505859 C 1676.7272 62.610279 1673.4375 68.396484 1673.4375 68.396484 C 1673.4375 68.396484 1668.7615 66.04347 1660.084 69.193359 C 1651.4063 72.343269 1649.5996 79.378906 1649.5996 79.378906 C 1649.5996 79.378906 1642.9621 78.226028 1636.6465 80.830078 C 1630.331 83.434098 1628.9824 91.806641 1628.9824 91.806641 C 1628.9824 91.806641 1617.3003 87.98853 1612.1348 96 C 1606.9694 104.01142 1609.9453 110.63867 1609.9453 110.63867 C 1609.9453 110.63867 1596.7306 109.01455 1588.1113 112.84766 C 1579.4922 116.68074 1575.127 126 1575.127 126 C 1575.127 126 1556.2991 123.13429 1544.8887 126.51758 C 1533.4782 129.90089 1529.3477 141.95312 1529.3477 141.95312 C 1529.3477 141.95312 1520.0854 138.27224 1510.7246 141.48047 C 1501.3638 144.68872 1497.0273 154.34961 1497.0273 154.34961 C 1497.0273 154.34961 1491.3871 152.76604 1487.4336 154.82422 C 1483.4802 156.88241 1483.6055 162.37695 1483.6055 162.37695 C 1483.6055 162.37695 1477.3746 163.55636 1475.1465 168.36328 C 1474.8692 168.10629 1474.5699 167.85446 1474.2344 167.61914 C 1468.4545 163.5652 1463.7715 165.48828 1463.7715 165.48828 C 1463.7715 165.48828 1459.176 156.73175 1447.4395 156.87891 C 1435.7029 157.02608 1434.0547 166.16016 1434.0547 166.16016 C 1434.0547 166.16016 1424.56 161.37305 1418.0645 164.13867 C 1411.569 166.90429 1410.4043 174.71094 1410.4043 174.71094 C 1410.4043 174.71094 1398.1814 169.63598 1391.0586 175.09375 C 1383.9358 180.55142 1379.668 188.37695 1379.668 188.37695 C 1379.668 188.37695 1374.3713 182.9947 1361.5234 187.16211 C 1348.6754 191.32952 1348.1758 196.10352 1348.1758 196.10352 C 1348.1758 196.10352 1343.1123 191.7796 1330.3887 191.47852 C 1317.665 191.17735 1313.3418 196.24023 1313.3418 196.24023 C 1313.3418 196.24023 1309.196 193.04737 1300.0801 194.50391 C 1290.9641 195.96074 1287.8613 202.5293 1287.8613 202.5293 C 1287.8613 202.5293 1281.5605 200.14381 1274.8672 201.50977 C 1268.1738 202.87574 1265.2695 210.84375 1265.2695 210.84375 C 1265.2695 210.84375 1254.5195 204.88995 1247.9355 211.7832 C 1241.3515 218.67635 1243.0215 225.74609 1243.0215 225.74609 C 1243.0215 225.74609 1230.3516 221.65843 1221.1641 223.79688 C 1211.9765 225.93522 1205.9297 234.26367 1205.9297 234.26367 C 1205.9297 234.26367 1187.9825 227.89824 1176.1387 229.06836 C 1164.2948 230.23859 1157.9629 241.29688 1157.9629 241.29688 C 1157.9629 241.29688 1149.5635 235.93358 1139.7656 237.31836 C 1129.9676 238.70325 1123.8867 247.37305 1123.8867 247.37305 C 1123.8867 247.37305 1118.6457 244.75381 1114.375 246.0293 C 1110.1044 247.30477 1109.1914 252.72461 1109.1914 252.72461 C 1109.1914 252.72461 1102.2985 252.69051 1099.375 257.55469 C 1096.4512 262.41891 1099.9707 268.30469 1099.9707 268.30469 C 1099.9707 268.30469 1084.4644 264.95374 1078.4551 272.94141 C 1078.386 273.0332 1078.3275 273.12794 1078.2617 273.2207 C 1077.3608 273.22413 1076.7715 273.32812 1076.7715 273.32812 C 1076.7715 273.32812 1076.5215 269.07812 1072.2715 266.07812 C 1068.0215 263.07813 1059.7715 266.32812 1059.7715 266.32812 C 1059.7715 266.32812 1049.5215 258.32812 1044.5215 258.32812 C 1039.5215 258.32812 1034.0215 261.82812 1034.0215 261.82812 C 1034.0215 261.82812 1026.0215 257.57813 1017.5215 258.07812 C 1009.0215 258.57812 1002.5215 263.32812 1002.5215 263.32812 C 1002.5215 263.32812 996.52148 257.82813 988.52148 258.32812 C 980.52148 258.82812 976.02148 264.32812 976.02148 264.32812 C 976.02148 264.32812 972.27148 260.07813 965.52148 260.32812 C 963.46533 260.40428 961.43466 260.90097 959.60156 261.55078 C 958.28854 256.00271 955.28438 248.43111 948.40039 244.89062 C 936.85993 238.9553 930.78711 239.62109 930.78711 239.62109 C 930.78711 239.62109 926.36429 231.32366 916.80469 229.03516 C 907.24521 226.74671 900.50781 232.58008 900.50781 232.58008 C 900.50781 232.58008 906.18685 225.10772 900.95117 219.00781 C 895.71548 212.908 890.00781 213.70898 890.00781 213.70898 C 890.00781 213.70898 887.40042 202.75503 874.41016 199.61328 C 861.41973 196.47158 857.0293 206.08594 857.0293 206.08594 C 857.0293 206.08594 847.90212 198.12882 839.95703 199.35156 C 832.01196 200.57421 828.5293 208.85938 828.5293 208.85938 C 828.5293 208.85938 816.47326 199.81961 807.07812 203.83594 C 797.68314 207.85211 790.77148 215.28516 790.77148 215.28516 C 790.77148 215.28516 786.444 207.85698 771.0957 208.83789 C 755.74743 209.81882 753.84961 214.94336 753.84961 214.94336 C 753.84961 214.94336 749.48247 208.74819 735.5293 204.83398 C 721.57599 200.91972 715.38086 205.28711 715.38086 205.28711 C 715.38086 205.28711 711.70401 200.59802 701.23633 199.63867 C 690.76861 198.67964 685.49805 205.05273 685.49805 205.05273 C 685.49805 205.05273 679.21853 200.6488 671.44922 200.27148 C 663.6799 199.89426 658.23047 207.86719 658.23047 207.86719 C 658.23047 207.86719 648.04646 198.27171 638.8418 204.02344 C 629.63712 209.77517 629.49023 218.04688 629.49023 218.04688 C 629.49023 218.04688 616.66049 209.9693 605.92188 209.74219 C 595.18329 209.51488 586.16797 217.00195 586.16797 217.00195 C 586.16797 217.00195 568.15834 204.92609 554.76172 202.88281 C 541.36499 200.83962 531.26758 211.25586 531.26758 211.25586 C 531.26758 211.25586 523.51991 202.98845 512.33398 201.74805 C 504.79 197.22785 493.38281 198.32812 493.38281 198.32812 C 493.38281 198.32812 498.13946 192.13717 495.47461 186.25 C 492.8101 180.36294 485.01172 179.49023 485.01172 179.49023 C 485.01172 179.49023 484.69297 173.24051 480.03125 171.23438 C 475.36949 169.22824 469.09766 171.49805 469.09766 171.49805 C 469.09766 171.49805 463.36341 160.89048 452.46484 158.03125 C 441.56638 155.17211 431.35742 160.12891 431.35742 160.12891 C 431.35742 160.12891 425.65668 146.7888 412.41602 143.90234 C 399.17542 141.016 378.03711 145.84766 378.03711 145.84766 C 378.03711 145.84766 372.29818 135.6289 362.18945 131.99805 C 352.08078 128.36708 337.21094 131.31836 337.21094 131.31836 C 337.21094 131.31836 340.03471 123.54373 333.49805 114.87891 C 326.9614 106.21397 314.01562 111.5293 314.01562 111.5293 C 314.01562 111.5293 311.78234 102.13324 304.39258 99.705078 C 297.0028 97.276928 289.5625 99.142578 289.5625 99.142578 C 289.5625 99.142578 286.92038 91.303745 276.80273 88.453125 C 266.685 85.602835 261.57422 88.667969 261.57422 88.667969 C 261.57422 88.667969 257.35382 82.371673 242.92383 81.033203 C 228.49399 79.694643 222.19727 83.916016 222.19727 83.916016 C 222.19727 83.916016 222.26196 78.451668 208.28125 72.042969 C 194.30051 65.634249 187.59961 71.021484 187.59961 71.021484 C 187.59961 71.021484 183.80423 61.608533 176.46875 54.496094 C 169.13319 47.383524 154.64062 51.509766 154.64062 51.509766 C 154.64063 51.509766 154.35437 42.526055 147.37305 38.541016 C 140.39175 34.555986 129.02148 38.71875 129.02148 38.71875 C 129.02148 38.71875 128.36377 28.170328 115.10938 26.455078 C 101.85511 24.739828 95.5 34.037109 95.5 34.037109 C 95.5 34.037109 90.456659 31.244246 83.384766 35.066406 C 76.31285 38.888586 78.941406 47.898438 78.941406 47.898438 C 78.941406 47.898438 74.737521 40.042002 64.992188 38.757812 C 55.246723 37.473603 48.148438 43.638672 48.148438 43.638672 C 48.148438 43.638672 42.714682 40.841766 29.814453 42.253906 C 16.914365 43.666096 10.09375 59.59375 10.09375 59.59375 C 10.09375 59.59375 -2.6940952 51.247139 -16.025391 56.167969 C -29.356606 61.088938 -28.451172 84.134766 -28.451172 84.134766 L -57.322266 317.6582 L 428.50195 321.75781 C 427.92545 327.83732 428.674 335.79229 434.61133 341.99414 C 445.71968 353.59704 467.13086 359.85352 467.13086 359.85352 L 931.20703 533.23828 L 979.09766 340.03711 L 1083.834 344.2793 C 1088.7127 348.81014 1094.2227 349.40234 1094.2227 349.40234 C 1094.2227 349.40234 1092.1274 366.07534 1104.0996 373.53711 C 1116.0718 380.99881 1135.6523 381.67383 1135.6523 381.67383 L 1568.2129 428.45117 L 1567.2051 281.2832 L 1967.5352 248.36133 L 1927.166 45.693359 C 1927.166 45.693359 1926.4686 25.450843 1914.4746 22.001953 C 1902.4804 18.553093 1891.8203 26.689453 1891.8203 26.689453 C 1891.8203 26.689453 1884.8156 13.178991 1873.4258 12.775391 C 1862.0359 12.371831 1857.459 15.171875 1857.459 15.171875 C 1857.459 15.171875 1850.8432 10.232058 1842.3906 11.986328 C 1833.9379 13.740588 1830.7637 20.892578 1830.7637 20.892578 C 1830.7637 20.892578 1832.4838 12.832306 1826.043 9.9414062 C 1819.6022 7.0505264 1815.3652 9.8203125 1815.3652 9.8203125 C 1815.3652 9.8203125 1810.6447 3.8999261 1801.7617 4 z M 1476.9844 178.76367 C 1477.0351 178.83049 1477.0473 178.84648 1477.0898 178.90039 C 1476.9148 179.11827 1476.8047 179.26562 1476.8047 179.26562 C 1476.8047 179.26562 1476.8834 179.05995 1476.9844 178.76367 z "
         transform="translate(0,632.36252)"
         id="path4857" />
      <path
         style="fill:#ecb0b0;fill-opacity:1;fill-rule:evenodd;stroke:none;stroke-width:1px;stroke-linecap:butt;stroke-linejoin:miter;stroke-opacity:1"
         d="M 1905.5977 127.48828 C 1903.9448 127.44713 1902.2784 127.51293 1900.625 127.7168 C 1887.3976 129.34783 1881.4258 138.80273 1881.4258 138.80273 C 1881.4258 138.80273 1870.9339 129.50095 1855.1934 131.03711 C 1839.4523 132.57338 1829.4902 145.16992 1829.4902 145.16992 C 1829.4902 145.16992 1815.3377 137.95729 1798.623 139.65039 C 1781.9083 141.34352 1767.6582 152.13281 1767.6582 152.13281 C 1767.6582 152.13281 1755.8453 147.04052 1746.1055 148.60938 C 1736.3656 150.17819 1718.9082 168.97852 1718.9082 168.97852 C 1718.9082 168.97852 1701.8182 165.23658 1694.4805 172.41406 C 1687.143 179.59156 1687.9902 187.94727 1687.9902 187.94727 C 1687.9902 187.94727 1676.3971 187.3168 1668.3828 199.59961 C 1665.9046 203.39789 1665.4193 207.6885 1665.9277 211.80273 C 1656.958 208.81426 1650.4375 212.64062 1650.4375 212.64062 C 1650.4375 212.64062 1647.7204 205.79658 1639.1133 203.17578 C 1630.5058 200.55508 1618.7207 210.36914 1618.7207 210.36914 C 1618.7207 210.36914 1597.5471 202.79288 1589.3359 205.50586 C 1581.1246 208.21875 1573.9902 216.95117 1573.9902 216.95117 C 1573.9902 216.95117 1558.5473 214.31106 1544.8594 219.74414 C 1531.1716 225.17721 1523.0742 236.50586 1523.0742 236.50586 C 1523.0742 236.50586 1510.2361 230.72875 1497.3691 235.89062 C 1484.5024 241.05242 1480.0977 252.52539 1480.0977 252.52539 C 1480.0977 252.52539 1471.6332 247.5813 1460.6836 251.6543 C 1449.7339 255.72738 1441.6367 267.05469 1441.6367 267.05469 L 1442.6152 270.48242 C 1435.143 273.33945 1430.377 277.59961 1430.377 277.59961 C 1430.377 277.59961 1417.6575 268.08327 1400.8984 266.9082 C 1384.1393 265.73316 1368.2617 273.94141 1368.2617 273.94141 C 1368.2617 273.94141 1357.4877 266.91366 1347.623 266.80273 C 1337.7582 266.69173 1317.3594 282.24805 1317.3594 282.24805 C 1317.3594 282.24805 1301.1529 275.65394 1292.7012 281.47852 C 1284.2496 287.30315 1283.6621 295.68164 1283.6621 295.68164 C 1283.6621 295.68164 1272.9071 293.22195 1263.1133 303.05078 C 1262.7002 302.99797 1262.2804 302.95663 1261.8477 302.93945 C 1250.7732 302.50005 1243.0938 310.95703 1243.0938 310.95703 C 1243.0938 310.95703 1246.0159 292.23161 1234.8203 285.91211 C 1223.6247 279.59261 1214.8594 284.76562 1214.8594 284.76562 C 1214.8594 284.76562 1212.1423 277.92158 1203.5352 275.30078 C 1194.9277 272.68005 1183.1426 282.49414 1183.1426 282.49414 C 1183.1426 282.49414 1161.969 274.91786 1153.7578 277.63086 C 1145.5465 280.34376 1138.4141 289.07617 1138.4141 289.07617 C 1138.4141 289.07617 1137.4741 288.91937 1135.9023 288.76172 C 1134.6155 288.23555 1133.221 287.77531 1131.7031 287.4082 C 1123.9225 285.52648 1118.7606 287.51858 1115.5527 289.93945 C 1113.461 290.42902 1111.3522 291.04713 1109.2812 291.86914 C 1108.7641 292.07441 1108.2706 292.30227 1107.7695 292.52344 C 1103.8468 289.85092 1097.1401 286.15105 1090.9766 287.09961 C 1081.5849 288.54488 1077.4688 298.33984 1077.4688 298.33984 C 1077.4688 298.33984 1063.2172 287.65471 1052.1113 292.40234 C 1041.0056 297.14978 1032.8359 305.93555 1032.8359 305.93555 C 1032.8359 305.93555 1027.7191 297.15298 1009.5762 298.3125 C 991.43321 299.47204 989.19141 305.53125 989.19141 305.53125 C 989.19141 305.53125 984.02895 298.20895 967.53516 293.58203 C 951.04116 288.95506 943.7168 294.11719 943.7168 294.11719 C 943.7168 294.11719 939.3736 288.57348 927 287.43945 C 914.6263 286.3058 908.39258 293.83984 908.39258 293.83984 C 908.39258 293.83984 900.97101 288.63352 891.78711 288.1875 C 882.60311 287.7416 876.16211 297.16797 876.16211 297.16797 C 876.16211 297.16797 864.12289 285.82404 853.24219 292.62305 C 842.36153 299.42206 842.1875 309.19922 842.1875 309.19922 C 842.1875 309.19922 827.02205 299.65127 814.32812 299.38281 C 801.63425 299.11411 790.97852 307.96484 790.97852 307.96484 C 790.97852 307.96484 789.11505 306.73817 786.26367 305.01758 C 785.86502 301.70089 784.67212 298.45618 782.11133 295.85742 C 773.06695 286.67895 763.19336 289.24609 763.19336 289.24609 C 763.19336 289.24609 762.46547 281.90028 754.89453 277 C 747.32356 272.09972 733.25781 278.30469 733.25781 278.30469 C 733.25781 278.30469 714.94612 265.16313 706.28516 265.51172 C 697.6242 265.8603 688.3418 272.30469 688.3418 272.30469 C 688.3418 272.30469 674.18683 265.50225 659.49805 266.96094 C 644.80926 268.41959 633.88086 277.09961 633.88086 277.09961 C 633.88086 277.09961 623.10391 267.99024 609.28125 269.41406 C 595.45857 270.8379 588.04883 280.67969 588.04883 280.67969 C 588.04883 280.67969 581.25688 273.57881 569.58203 274.48242 C 559.29083 275.27896 549.60258 282.10285 547.44531 283.71289 C 546.72151 282.36162 541.17329 272.6768 528.77539 269.02344 C 515.44626 265.09566 503.18555 272.08008 503.18555 272.08008 C 503.18555 272.08008 494.02975 261.54815 479.85547 257.42773 C 465.68121 253.30729 450.52148 257.4082 450.52148 257.4082 C 450.52148 257.4082 442.57418 249.37198 434.12305 247.44531 C 425.67191 245.51863 405.26562 255.0918 405.26562 255.0918 C 405.26563 255.0918 392.57384 246.41856 384.23438 249.85156 C 382.61649 250.51758 381.24047 251.3229 380.06445 252.18555 C 368.84 248.53979 358.70898 250.11914 358.70898 250.11914 C 358.70898 250.11914 351.51664 243.23723 339.4707 239.8418 C 327.42462 236.44634 321.64258 242.53711 321.64258 242.53711 C 319.65592 238.02454 318.31987 233.46122 302.80859 225.63672 C 287.29726 217.81233 278.54688 223.94336 278.54688 223.94336 C 278.54688 223.94336 269.60954 220.90765 262.83789 226.17773 C 260.9379 219.90325 245.14453 214.45117 245.14453 214.45117 C 245.14453 214.45117 245.37468 200.7752 234.99805 196.29297 C 224.62104 191.81082 214.20898 197.03906 214.20898 197.03906 C 214.20898 197.03906 223.85986 180.29382 215.52539 170.17188 C 207.1909 160.04999 196.95313 161.75586 196.95312 161.75586 C 196.95312 161.75586 196.87908 154.2462 189.65039 148.59375 C 182.42137 142.94128 167.60547 147.95508 167.60547 147.95508 C 167.60547 147.95508 150.23689 132.97457 141.42773 132.54297 C 132.61846 132.11124 122.62695 137.80273 122.62695 137.80273 C 122.62695 137.80273 108.89784 129.62446 93.878906 129.77148 C 78.860135 129.91853 66.998047 137.72656 66.998047 137.72656 C 66.998047 137.72656 56.901933 127.51879 42.763672 127.70898 C 28.625739 127.89921 20.222656 137.20117 20.222656 137.20117 C 20.222656 137.20117 13.982395 129.38841 2.0683594 129.24609 C -9.8458483 129.10379 -21.707031 136.91211 -21.707031 136.91211 L -33.337891 266.14844 L 302.10156 306.92773 C 301.64424 312.78487 307.5 321.26172 307.5 321.26172 C 307.5 321.26172 285.9116 314.56228 269.1582 317.85547 C 252.40483 321.14823 248.70699 335.4181 245.63086 339.16211 L 227.19531 357.63086 L 564.09766 420.21094 L 565.69531 411.59766 L 595.64844 411.60547 C 600.46675 418.5366 606.97461 420.95312 606.97461 420.95312 C 606.97461 420.95312 598.69538 441.99904 611.82617 455.71484 C 624.95715 469.43044 650.26758 476.82617 650.26758 476.82617 L 1198.8418 681.78125 L 1259.8281 435.75195 L 1533.7637 427.74023 L 1532.2148 375.35742 L 1808.8398 305.58008 L 1956.9102 275.53516 L 1928.0039 133.29883 C 1928.0039 133.29883 1917.1678 127.77636 1905.5977 127.48828 z "
         transform="translate(0,632.36252)"
         id="path4863" />
      <path
         style="fill:#e18787;fill-opacity:1;fill-rule:evenodd;stroke:none;stroke-width:1px;stroke-linecap:butt;stroke-linejoin:miter;stroke-opacity:1"
         d="M 1917.959 228.53125 C 1916.965 228.5416 1915.969 228.58738 1914.9766 228.67578 C 1899.0983 230.09022 1891.5781 241.15234 1891.5781 241.15234 C 1891.5781 241.15234 1879.4123 229.60911 1860.5332 230.80859 C 1841.6537 232.00804 1829.2344 246.66211 1829.2344 246.66211 C 1829.2344 246.66211 1812.6065 237.46685 1792.5566 238.81445 C 1772.5064 240.16202 1755.0352 252.48242 1755.0352 252.48242 C 1755.0352 252.48242 1741.121 245.9171 1729.4141 247.39844 C 1717.7069 248.87979 1696.0781 270.64844 1696.0781 270.64844 C 1696.0781 270.64844 1675.7985 265.48231 1666.7363 273.76562 C 1657.6743 282.04899 1658.3477 292.07422 1658.3477 292.07422 C 1658.3477 292.07422 1644.5129 290.8519 1634.4355 305.21094 C 1630.0728 311.42735 1630.3395 318.95153 1632.0391 325.48828 C 1629.9991 324.53408 1627.7875 323.69169 1625.3887 323.02148 C 1607.1689 317.93106 1590.6152 327.67383 1590.6152 327.67383 C 1590.6152 327.67383 1577.9478 313.51206 1558.5742 308.17578 C 1539.2002 302.83937 1518.6445 308.71289 1518.6445 308.71289 C 1518.6445 308.71289 1507.6699 297.92886 1496.1289 295.46875 C 1484.5877 293.00855 1456.9922 306.42969 1456.9922 306.42969 C 1456.9922 306.42969 1439.5498 294.86965 1428.2637 299.70312 C 1416.9779 304.53667 1414.3086 314.22266 1414.3086 314.22266 C 1414.3086 314.22266 1401.6514 308.50912 1387.4043 318.74414 C 1373.1573 328.97936 1379.9004 353.94336 1379.9004 353.94336 C 1379.9004 353.94336 1368.2278 343.61232 1353.2715 345.85352 C 1338.3149 348.09502 1333.9258 365.86133 1333.9258 365.86133 C 1333.9258 365.86133 1323.2538 367.80944 1318.6465 375.27344 C 1314.039 382.73694 1325.1836 398.38477 1325.1836 398.38477 C 1325.1836 398.38477 1308.1681 378.67988 1285.4258 383.48438 C 1272.7044 386.17196 1261.7052 396.89873 1253.7559 406.73242 C 1248.8422 405.18181 1243.4079 404.07483 1237.5508 403.87695 C 1216.7271 403.17315 1200.5273 410.94922 1200.5273 410.94922 C 1200.5273 410.94922 1204.9296 397.9014 1199.7012 392.0293 C 1194.4728 386.157 1187.75 383.59766 1187.75 383.59766 C 1187.75 383.59766 1181.1105 368.59741 1167.5586 368.94531 C 1154.0067 369.29321 1145.3086 380.23047 1145.3086 380.23047 C 1145.3086 380.23047 1144.3784 362.14127 1130.209 355.32227 C 1116.0397 348.50328 1108.7559 350.51758 1108.7559 350.51758 C 1108.7559 350.51758 1100.8927 343.88043 1090.1777 341.36914 C 1079.4628 338.85793 1069.8633 350.27734 1069.8633 350.27734 C 1069.8633 350.27734 1043.4128 342.7223 1033.6074 346.68945 C 1023.8018 350.65659 1015.793 361.88281 1015.793 361.88281 C 1015.793 361.88281 996.73362 359.89651 980.46094 367.62109 C 964.18822 375.3457 955.20898 389.81836 955.20898 389.81836 C 955.20898 389.81836 939.07931 383.79309 923.78711 391.12109 C 913.59546 396.00489 908.23296 403.99199 905.77734 408.78906 C 900.99031 405.70635 895.22811 402.79436 889.08398 401.44141 C 872.98834 397.89711 862.13281 406.46289 862.13281 406.46289 C 862.13281 406.46289 853.7277 391.29722 834.74023 386.60742 C 815.75277 381.91772 798.94922 392.50391 798.94922 392.50391 C 798.94922 392.50391 785.41637 378.26707 765.22852 373.35938 C 745.04068 368.45158 723.98242 375.16406 723.98242 375.16406 C 723.98242 375.16406 712.30426 364.3625 700.30078 362.18164 C 688.2973 360.00079 660.20117 374.73633 660.20117 374.73633 C 660.20117 374.73633 641.81422 363.33513 630.30273 368.68359 C 618.79132 374.03189 616.33594 384.12695 616.33594 384.12695 C 616.33594 384.12695 603.07819 378.61763 588.67578 389.64062 C 582.34394 394.48679 580.29562 402.14656 579.98633 409.21094 C 563.00183 406.9629 546.96094 408.82812 546.96094 408.82812 C 546.96094 408.82812 560.46789 395.40735 557.2168 387.34375 C 553.96566 379.28005 543.86719 375.58789 543.86719 375.58789 C 543.86719 375.58789 542.5529 357.4977 528.31641 352.80273 C 514.07987 348.10782 500.94531 356.24414 500.94531 356.24414 C 500.94531 356.24414 511.71652 332.98338 499.51172 320.59766 C 487.30694 308.21193 473.98242 311.67578 473.98242 311.67578 C 473.98242 311.67578 472.99966 301.76494 462.7832 295.15234 C 452.56669 288.53975 433.58789 296.91211 433.58789 296.91211 C 433.58789 296.91211 408.87682 279.17609 397.18945 279.64648 C 385.50208 280.11688 372.97461 288.81641 372.97461 288.81641 C 372.97461 288.81641 353.87422 279.63513 334.05273 281.60352 C 314.23123 283.57187 299.48438 295.28516 299.48438 295.28516 C 299.48438 295.28516 284.9418 282.99468 266.28906 284.91602 C 259.46065 285.6194 253.80661 287.84972 249.36328 290.38867 C 244.32102 285.92934 236.36473 280.02235 227.37305 277.61914 C 212.10737 273.53909 201.34375 281.2832 201.34375 281.2832 C 201.34375 281.2832 193.9399 266.39793 175.95312 261.09766 C 157.96639 255.79739 141.42188 265.22266 141.42188 265.22266 C 141.42187 265.22266 129.0647 251.00749 109.9375 245.44727 C 90.810303 239.88697 70.353516 245.42188 70.353516 245.42188 C 70.353516 245.42188 59.628834 234.57843 48.224609 231.97852 C 36.820375 229.3786 9.2832031 242.29492 9.2832031 242.29492 C 9.2832031 242.29492 -7.8441195 230.59396 -19.097656 235.22656 C -30.351183 239.85919 -33.130859 249.42188 -33.130859 249.42188 C -33.130859 249.42188 -45.59723 243.58064 -59.861328 253.52539 C -74.125452 263.47015 -67.791016 288.30859 -67.791016 288.30859 C -67.791016 288.30859 -79.215262 277.90582 -94.070312 279.91797 C -108.92532 281.92995 -113.52539 299.47656 -113.52539 299.47656 C -113.52539 299.47656 -124.12973 301.2586 -128.80078 308.5918 C -133.47174 315.92481 -122.64648 331.58984 -122.64648 331.58984 C -122.64648 331.58984 -151.77721 322.54825 -174.38477 326.99219 C -196.99228 331.43553 -201.98178 350.69186 -206.13281 355.74414 L -231.00977 380.66602 L 182.12891 457.4082 L 182.11719 476.77344 L 460.2207 476.8457 C 447.57283 485.16419 444.2142 498.63393 440.99609 502.92578 L 416.22852 530.04492 L 893.85547 596.98242 L 900.27734 551.05273 L 910.68359 580.13086 L 1250.25 458.49805 L 1657.0684 567.96484 L 1678.9238 473.00391 L 1971.1777 451.62109 L 1947.4824 236.45703 C 1947.4824 236.45703 1932.8694 228.37606 1917.959 228.53125 z "
         id="path6780"
         transform="translate(0,632.36252)" />
      <rect
         y="312.36255"
         x="-22.86952"
         height="740"
         width="1960"
         id="rect6709"
         style="opacity:1;fill:#ffffff;fill-opacity:0.49019608;stroke:none;stroke-width:1;stroke-linecap:butt;stroke-linejoin:miter;stroke-miterlimit:4;stroke-dasharray:none;stroke-dashoffset:5.4000001;stroke-opacity:1" />
    </g>
  </g>
</svg>
